<?xml version="1.0" encoding="UTF-8" standalone="no"?>
<!DOCTYPE svg PUBLIC "-//W3C//DTD SVG 1.1//EN"
 "http://www.w3.org/Graphics/SVG/1.1/DTD/svg11.dtd">
<!-- Generated by graphviz version 2.38.0 (20140413.2041)
 -->
<!-- Title: Call graph Pages: 1 -->
<svg width="602pt" height="287pt"
 viewBox="0.00 0.00 602.00 287.00" xmlns="http://www.w3.org/2000/svg" xmlns:xlink="http://www.w3.org/1999/xlink">
<g id="graph0" class="graph" transform="scale(1 1) rotate(0) translate(4 283)">
<title>Call graph</title>
<polygon fill="white" stroke="none" points="-4,4 -4,-283 598,-283 598,4 -4,4"/>
<text text-anchor="middle" x="297" y="-7.8" font-family="Times,serif" font-size="14.00">Call graph</text>
<!-- Node0x4630860 -->
<g id="node1" class="node"><title>Node0x4630860</title>
<polygon fill="none" stroke="black" points="357,-242.5 357,-278.5 447,-278.5 447,-242.5 357,-242.5"/>
<text text-anchor="middle" x="402" y="-256.8" font-family="Times,serif" font-size="14.00">external node</text>
</g>
<!-- Node0x4656910 -->
<g id="node2" class="node"><title>Node0x4656910</title>
<polygon fill="none" stroke="black" points="0,-169.5 0,-205.5 76,-205.5 76,-169.5 0,-169.5"/>
<text text-anchor="middle" x="38" y="-183.8" font-family="Times,serif" font-size="14.00">_apex_exit</text>
</g>
<!-- Node0x4630860&#45;&gt;Node0x4656910 -->
<g id="edge1" class="edge"><title>Node0x4630860&#45;&gt;Node0x4656910</title>
<path fill="none" stroke="black" d="M356.803,-254.603C296.722,-247.497 187.266,-232.475 85.8144,-205.948"/>
<polygon fill="black" stroke="black" points="86.5871,-202.532 76.0235,-203.345 84.7884,-209.297 86.5871,-202.532"/>
</g>
<!-- Node0x4656a50 -->
<g id="node3" class="node"><title>Node0x4656a50</title>
<polygon fill="none" stroke="black" points="94.5,-169.5 94.5,-205.5 203.5,-205.5 203.5,-169.5 94.5,-169.5"/>
<text text-anchor="middle" x="149" y="-183.8" font-family="Times,serif" font-size="14.00">llvm.dbg.declare</text>
</g>
<!-- Node0x4630860&#45;&gt;Node0x4656a50 -->
<g id="edge2" class="edge"><title>Node0x4630860&#45;&gt;Node0x4656a50</title>
<path fill="none" stroke="black" d="M356.769,-246.807C316.779,-235.584 257.999,-219.089 213.156,-206.504"/>
<polygon fill="black" stroke="black" points="214.096,-203.133 203.523,-203.801 212.205,-209.873 214.096,-203.133"/>
</g>
<!-- Node0x46569b0 -->
<g id="node4" class="node"><title>Node0x46569b0</title>
<polygon fill="none" stroke="black" points="205,-96.5 205,-132.5 259,-132.5 259,-96.5 205,-96.5"/>
<text text-anchor="middle" x="232" y="-110.8" font-family="Times,serif" font-size="14.00">exit</text>
</g>
<!-- Node0x4630860&#45;&gt;Node0x46569b0 -->
<g id="edge3" class="edge"><title>Node0x4630860&#45;&gt;Node0x46569b0</title>
<path fill="none" stroke="black" d="M356.778,-255.227C322.776,-249.578 277.641,-236.46 251,-206 235.929,-188.768 231.752,-162.655 231.01,-142.9"/>
<polygon fill="black" stroke="black" points="234.507,-142.639 230.903,-132.676 227.507,-142.712 234.507,-142.639"/>
</g>
<!-- Node0x4656ba0 -->
<g id="node5" class="node"><title>Node0x4656ba0</title>
<polygon fill="none" stroke="black" points="260.5,-169.5 260.5,-205.5 373.5,-205.5 373.5,-169.5 260.5,-169.5"/>
<text text-anchor="middle" x="317" y="-183.8" font-family="Times,serif" font-size="14.00">_apex_extract_int</text>
</g>
<!-- Node0x4630860&#45;&gt;Node0x4656ba0 -->
<g id="edge4" class="edge"><title>Node0x4630860&#45;&gt;Node0x4656ba0</title>
<path fill="none" stroke="black" d="M381.424,-242.313C370.566,-233.243 357.078,-221.977 345.254,-212.1"/>
<polygon fill="black" stroke="black" points="347.305,-209.253 337.387,-205.529 342.818,-214.626 347.305,-209.253"/>
</g>
<!-- Node0x4656c10 -->
<g id="node6" class="node"><title>Node0x4656c10</title>
<polygon fill="none" stroke="black" points="290,-96.5 290,-132.5 344,-132.5 344,-96.5 290,-96.5"/>
<text text-anchor="middle" x="317" y="-110.8" font-family="Times,serif" font-size="14.00">printf</text>
</g>
<!-- Node0x4630860&#45;&gt;Node0x4656c10 -->
<g id="edge5" class="edge"><title>Node0x4630860&#45;&gt;Node0x4656c10</title>
<path fill="none" stroke="black" d="M401.498,-242.253C400.223,-223.066 395.957,-191.774 382,-169 374.575,-156.885 363.416,-146.256 352.429,-137.731"/>
<polygon fill="black" stroke="black" points="354.257,-134.732 344.125,-131.633 350.113,-140.374 354.257,-134.732"/>
</g>
<!-- Node0x4656d80 -->
<g id="node7" class="node"><title>Node0x4656d80</title>
<polygon fill="none" stroke="black" points="468,-96.5 468,-132.5 522,-132.5 522,-96.5 468,-96.5"/>
<text text-anchor="middle" x="495" y="-110.8" font-family="Times,serif" font-size="14.00">foo</text>
</g>
<!-- Node0x4630860&#45;&gt;Node0x4656d80 -->
<g id="edge6" class="edge"><title>Node0x4630860&#45;&gt;Node0x4656d80</title>
<path fill="none" stroke="black" d="M421.75,-242.32C432.269,-232.448 444.881,-219.379 454,-206 467.588,-186.065 478.566,-160.9 485.731,-142.169"/>
<polygon fill="black" stroke="black" points="489.024,-143.355 489.218,-132.762 482.461,-140.922 489.024,-143.355"/>
</g>
<!-- Node0x4656df0 -->
<g id="node8" class="node"><title>Node0x4656df0</title>
<polygon fill="none" stroke="black" points="476,-23.5 476,-59.5 530,-59.5 530,-23.5 476,-23.5"/>
<text text-anchor="middle" x="503" y="-37.8" font-family="Times,serif" font-size="14.00">qux</text>
</g>
<!-- Node0x4630860&#45;&gt;Node0x4656df0 -->
<g id="edge7" class="edge"><title>Node0x4630860&#45;&gt;Node0x4656df0</title>
<path fill="none" stroke="black" d="M405.834,-242.431C413.177,-211.739 431.025,-145.796 459,-96 464.624,-85.9888 472.174,-76.0028 479.431,-67.416"/>
<polygon fill="black" stroke="black" points="482.271,-69.4857 486.226,-59.6569 477.005,-64.8739 482.271,-69.4857"/>
</g>
<!-- Node0x4656e60 -->
<g id="node9" class="node"><title>Node0x4656e60</title>
<polygon fill="none" stroke="black" points="540,-96.5 540,-132.5 594,-132.5 594,-96.5 540,-96.5"/>
<text text-anchor="middle" x="567" y="-110.8" font-family="Times,serif" font-size="14.00">bar</text>
</g>
<!-- Node0x4630860&#45;&gt;Node0x4656e60 -->
<g id="edge8" class="edge"><title>Node0x4630860&#45;&gt;Node0x4656e60</title>
<path fill="none" stroke="black" d="M447.246,-258.826C486.544,-255.541 541.364,-243.873 569,-206 582.192,-187.921 580.088,-161.952 575.624,-142.464"/>
<polygon fill="black" stroke="black" points="578.979,-141.459 573.063,-132.669 572.206,-143.229 578.979,-141.459"/>
</g>
<!-- Node0x4656f00 -->
<g id="node10" class="node"><title>Node0x4656f00</title>
<polygon fill="none" stroke="black" points="506,-169.5 506,-205.5 560,-205.5 560,-169.5 506,-169.5"/>
<text text-anchor="middle" x="533" y="-183.8" font-family="Times,serif" font-size="14.00">main</text>
</g>
<!-- Node0x4630860&#45;&gt;Node0x4656f00 -->
<g id="edge9" class="edge"><title>Node0x4630860&#45;&gt;Node0x4656f00</title>
<path fill="none" stroke="black" d="M433.378,-242.494C452.545,-232.105 477.12,-218.786 497.067,-207.975"/>
<polygon fill="black" stroke="black" points="498.745,-211.047 505.869,-203.205 495.41,-204.892 498.745,-211.047"/>
</g>
<!-- Node0x4656910&#45;&gt;Node0x46569b0 -->
<g id="edge12" class="edge"><title>Node0x4656910&#45;&gt;Node0x46569b0</title>
<path fill="none" stroke="black" d="M76.2108,-172.246C79.1838,-171.145 82.1402,-170.053 85,-169 122.553,-155.176 165.574,-139.542 195.33,-128.761"/>
<polygon fill="black" stroke="black" points="196.674,-131.997 204.885,-125.301 194.291,-125.415 196.674,-131.997"/>
</g>
<!-- Node0x46568a0 -->
<g id="node11" class="node"><title>Node0x46568a0</title>
<ellipse fill="none" stroke="black" cx="275" cy="-41.5" rx="68.7879" ry="18"/>
<text text-anchor="middle" x="275" y="-37.8" font-family="Times,serif" font-size="14.00">Node0x46568a0</text>
</g>
<!-- Node0x46569b0&#45;&gt;Node0x46568a0 -->
<g id="edge10" class="edge"><title>Node0x46569b0&#45;&gt;Node0x46568a0</title>
<path fill="none" stroke="black" d="M242.409,-96.3129C247.532,-87.8534 253.813,-77.4835 259.488,-68.1124"/>
<polygon fill="black" stroke="black" points="262.5,-69.8956 264.687,-59.5288 256.513,-66.2693 262.5,-69.8956"/>
</g>
<!-- Node0x4656ba0&#45;&gt;Node0x4656c10 -->
<g id="edge11" class="edge"><title>Node0x4656ba0&#45;&gt;Node0x4656c10</title>
<path fill="none" stroke="black" d="M317,-169.313C317,-161.289 317,-151.547 317,-142.569"/>
<polygon fill="black" stroke="black" points="320.5,-142.529 317,-132.529 313.5,-142.529 320.5,-142.529"/>
</g>
<!-- Node0x4656c10&#45;&gt;Node0x46568a0 -->
<g id="edge15" class="edge"><title>Node0x4656c10&#45;&gt;Node0x46568a0</title>
<path fill="none" stroke="black" d="M306.833,-96.3129C301.88,-87.9407 295.821,-77.6971 290.323,-68.4026"/>
<polygon fill="black" stroke="black" points="293.177,-66.3537 285.073,-59.5288 287.152,-69.9177 293.177,-66.3537"/>
</g>
<!-- Node0x4656e60&#45;&gt;Node0x4656df0 -->
<g id="edge16" class="edge"><title>Node0x4656e60&#45;&gt;Node0x4656df0</title>
<path fill="none" stroke="black" d="M551.507,-96.3129C543.568,-87.5046 533.761,-76.625 525.047,-66.9584"/>
<polygon fill="black" stroke="black" points="527.645,-64.6132 518.35,-59.5288 522.446,-69.3 527.645,-64.6132"/>
</g>
<!-- Node0x4656f00&#45;&gt;Node0x4656d80 -->
<g id="edge13" class="edge"><title>Node0x4656f00&#45;&gt;Node0x4656d80</title>
<path fill="none" stroke="black" d="M523.801,-169.313C519.32,-160.941 513.838,-150.697 508.863,-141.403"/>
<polygon fill="black" stroke="black" points="511.919,-139.694 504.114,-132.529 505.747,-142.997 511.919,-139.694"/>
</g>
<!-- Node0x4656f00&#45;&gt;Node0x4656e60 -->
<g id="edge14" class="edge"><title>Node0x4656f00&#45;&gt;Node0x4656e60</title>
<path fill="none" stroke="black" d="M541.23,-169.313C545.198,-161.028 550.043,-150.91 554.457,-141.693"/>
<polygon fill="black" stroke="black" points="557.683,-143.06 558.845,-132.529 551.37,-140.036 557.683,-143.06"/>
</g>
</g>
</svg>
