<?xml version="1.0" encoding="UTF-8" standalone="no"?>
<!DOCTYPE svg PUBLIC "-//W3C//DTD SVG 1.1//EN"
 "http://www.w3.org/Graphics/SVG/1.1/DTD/svg11.dtd">
<!-- Generated by graphviz version 2.38.0 (20140413.2041)
 -->
<!-- Title: Call graph Pages: 1 -->
<svg width="506pt" height="359pt"
 viewBox="0.00 0.00 505.98 359.00" xmlns="http://www.w3.org/2000/svg" xmlns:xlink="http://www.w3.org/1999/xlink">
<g id="graph0" class="graph" transform="scale(1 1) rotate(0) translate(4 355)">
<title>Call graph</title>
<polygon fill="white" stroke="none" points="-4,4 -4,-355 501.976,-355 501.976,4 -4,4"/>
<text text-anchor="middle" x="248.988" y="-7.8" font-family="Times,serif" font-size="14.00">Call graph</text>
<!-- Node0x40b6450 -->
<g id="node1" class="node"><title>Node0x40b6450</title>
<polygon fill="none" stroke="black" points="193.476,-314.5 193.476,-350.5 283.476,-350.5 283.476,-314.5 193.476,-314.5"/>
<text text-anchor="middle" x="238.476" y="-328.8" font-family="Times,serif" font-size="14.00">external node</text>
</g>
<!-- Node0x40b64f0 -->
<g id="node2" class="node"><title>Node0x40b64f0</title>
<polygon fill="none" stroke="black" points="184.476,-168.5 184.476,-204.5 260.476,-204.5 260.476,-168.5 184.476,-168.5"/>
<text text-anchor="middle" x="222.476" y="-182.8" font-family="Times,serif" font-size="14.00">_apex_exit</text>
</g>
<!-- Node0x40b6450&#45;&gt;Node0x40b64f0 -->
<g id="edge1" class="edge"><title>Node0x40b6450&#45;&gt;Node0x40b64f0</title>
<path fill="none" stroke="black" d="M243.386,-314.294C247.882,-295.944 253.056,-266.124 247.476,-241 245.408,-231.692 241.544,-222.087 237.461,-213.628"/>
<polygon fill="black" stroke="black" points="240.526,-211.936 232.842,-204.642 234.301,-215.136 240.526,-211.936"/>
</g>
<!-- Node0x40b6630 -->
<g id="node3" class="node"><title>Node0x40b6630</title>
<polygon fill="none" stroke="black" points="388.976,-241.5 388.976,-277.5 497.976,-277.5 497.976,-241.5 388.976,-241.5"/>
<text text-anchor="middle" x="443.476" y="-255.8" font-family="Times,serif" font-size="14.00">llvm.dbg.declare</text>
</g>
<!-- Node0x40b6450&#45;&gt;Node0x40b6630 -->
<g id="edge2" class="edge"><title>Node0x40b6450&#45;&gt;Node0x40b6630</title>
<path fill="none" stroke="black" d="M283.718,-315.831C313.317,-305.579 352.296,-292.079 384.341,-280.981"/>
<polygon fill="black" stroke="black" points="385.742,-284.2 394.046,-277.62 383.451,-277.585 385.742,-284.2"/>
</g>
<!-- Node0x40b6590 -->
<g id="node4" class="node"><title>Node0x40b6590</title>
<polygon fill="none" stroke="black" points="129.476,-95.5 129.476,-131.5 183.476,-131.5 183.476,-95.5 129.476,-95.5"/>
<text text-anchor="middle" x="156.476" y="-109.8" font-family="Times,serif" font-size="14.00">exit</text>
</g>
<!-- Node0x40b6450&#45;&gt;Node0x40b6590 -->
<g id="edge3" class="edge"><title>Node0x40b6450&#45;&gt;Node0x40b6590</title>
<path fill="none" stroke="black" d="M209.93,-314.403C197.235,-305.251 183.395,-292.803 175.476,-278 152.366,-234.8 151.688,-176.132 153.761,-142.089"/>
<polygon fill="black" stroke="black" points="157.264,-142.182 154.506,-131.952 150.283,-141.669 157.264,-142.182"/>
</g>
<!-- Node0x40b6780 -->
<g id="node5" class="node"><title>Node0x40b6780</title>
<polygon fill="none" stroke="black" points="14.9759,-168.5 14.9759,-204.5 127.976,-204.5 127.976,-168.5 14.9759,-168.5"/>
<text text-anchor="middle" x="71.4759" y="-182.8" font-family="Times,serif" font-size="14.00">_apex_extract_int</text>
</g>
<!-- Node0x40b6450&#45;&gt;Node0x40b6780 -->
<g id="edge4" class="edge"><title>Node0x40b6450&#45;&gt;Node0x40b6780</title>
<path fill="none" stroke="black" d="M199.785,-314.371C181.328,-305.134 159.594,-292.624 142.476,-278 120.355,-259.102 100.418,-232.404 87.3423,-212.904"/>
<polygon fill="black" stroke="black" points="90.245,-210.947 81.8344,-204.504 84.3914,-214.786 90.245,-210.947"/>
</g>
<!-- Node0x40b67f0 -->
<g id="node6" class="node"><title>Node0x40b67f0</title>
<polygon fill="none" stroke="black" points="44.4759,-95.5 44.4759,-131.5 98.4759,-131.5 98.4759,-95.5 44.4759,-95.5"/>
<text text-anchor="middle" x="71.4759" y="-109.8" font-family="Times,serif" font-size="14.00">printf</text>
</g>
<!-- Node0x40b6450&#45;&gt;Node0x40b67f0 -->
<g id="edge5" class="edge"><title>Node0x40b6450&#45;&gt;Node0x40b67f0</title>
<path fill="none" stroke="black" d="M193.187,-322.882C136.248,-309.237 41.5841,-276.488 5.47591,-205 -1.938,-190.322 -1.59992,-182.844 5.47591,-168 11.962,-154.393 23.7874,-143.124 35.6556,-134.495"/>
<polygon fill="black" stroke="black" points="37.9162,-137.191 44.2293,-128.682 33.9881,-131.397 37.9162,-137.191"/>
</g>
<!-- Node0x40b6960 -->
<g id="node7" class="node"><title>Node0x40b6960</title>
<polygon fill="none" stroke="black" points="305.476,-95.5 305.476,-131.5 359.476,-131.5 359.476,-95.5 305.476,-95.5"/>
<text text-anchor="middle" x="332.476" y="-109.8" font-family="Times,serif" font-size="14.00">qux</text>
</g>
<!-- Node0x40b6450&#45;&gt;Node0x40b6960 -->
<g id="edge6" class="edge"><title>Node0x40b6450&#45;&gt;Node0x40b6960</title>
<path fill="none" stroke="black" d="M259.475,-314.5C284.838,-292.42 326.021,-251.196 341.476,-205 348.376,-184.376 345.246,-159.748 340.881,-141.393"/>
<polygon fill="black" stroke="black" points="344.246,-140.425 338.311,-131.649 337.477,-142.211 344.246,-140.425"/>
</g>
<!-- Node0x40b69d0 -->
<g id="node8" class="node"><title>Node0x40b69d0</title>
<polygon fill="none" stroke="black" points="278.476,-168.5 278.476,-204.5 332.476,-204.5 332.476,-168.5 278.476,-168.5"/>
<text text-anchor="middle" x="305.476" y="-182.8" font-family="Times,serif" font-size="14.00">bar</text>
</g>
<!-- Node0x40b6450&#45;&gt;Node0x40b69d0 -->
<g id="edge7" class="edge"><title>Node0x40b6450&#45;&gt;Node0x40b69d0</title>
<path fill="none" stroke="black" d="M246.594,-314.157C251.491,-303.69 257.849,-290.082 263.476,-278 273.533,-256.405 284.906,-231.893 293.278,-213.831"/>
<polygon fill="black" stroke="black" points="296.564,-215.064 297.594,-204.52 290.213,-212.121 296.564,-215.064"/>
</g>
<!-- Node0x40b6a70 -->
<g id="node9" class="node"><title>Node0x40b6a70</title>
<polygon fill="none" stroke="black" points="184.476,-241.5 184.476,-277.5 238.476,-277.5 238.476,-241.5 184.476,-241.5"/>
<text text-anchor="middle" x="211.476" y="-255.8" font-family="Times,serif" font-size="14.00">main</text>
</g>
<!-- Node0x40b6450&#45;&gt;Node0x40b6a70 -->
<g id="edge8" class="edge"><title>Node0x40b6450&#45;&gt;Node0x40b6a70</title>
<path fill="none" stroke="black" d="M231.94,-314.313C228.822,-306.115 225.023,-296.123 221.548,-286.985"/>
<polygon fill="black" stroke="black" points="224.778,-285.632 217.952,-277.529 218.235,-288.12 224.778,-285.632"/>
</g>
<!-- Node0x40b64f0&#45;&gt;Node0x40b6590 -->
<g id="edge11" class="edge"><title>Node0x40b64f0&#45;&gt;Node0x40b6590</title>
<path fill="none" stroke="black" d="M206.499,-168.313C198.311,-159.505 188.198,-148.625 179.212,-138.958"/>
<polygon fill="black" stroke="black" points="181.678,-136.47 172.306,-131.529 176.551,-141.236 181.678,-136.47"/>
</g>
<!-- Node0x40b6480 -->
<g id="node10" class="node"><title>Node0x40b6480</title>
<ellipse fill="none" stroke="black" cx="113.476" cy="-41" rx="69.5877" ry="18"/>
<text text-anchor="middle" x="113.476" y="-37.3" font-family="Times,serif" font-size="14.00">Node0x40b6480</text>
</g>
<!-- Node0x40b6590&#45;&gt;Node0x40b6480 -->
<g id="edge9" class="edge"><title>Node0x40b6590&#45;&gt;Node0x40b6480</title>
<path fill="none" stroke="black" d="M146.067,-95.4339C140.996,-87.1206 134.792,-76.9493 129.163,-67.7202"/>
<polygon fill="black" stroke="black" points="131.984,-65.6237 123.789,-58.9089 126.008,-69.2688 131.984,-65.6237"/>
</g>
<!-- Node0x40b6780&#45;&gt;Node0x40b67f0 -->
<g id="edge10" class="edge"><title>Node0x40b6780&#45;&gt;Node0x40b67f0</title>
<path fill="none" stroke="black" d="M71.4759,-168.313C71.4759,-160.289 71.4759,-150.547 71.4759,-141.569"/>
<polygon fill="black" stroke="black" points="74.976,-141.529 71.4759,-131.529 67.976,-141.529 74.976,-141.529"/>
</g>
<!-- Node0x40b67f0&#45;&gt;Node0x40b6480 -->
<g id="edge12" class="edge"><title>Node0x40b67f0&#45;&gt;Node0x40b6480</title>
<path fill="none" stroke="black" d="M81.6429,-95.4339C86.5955,-87.1206 92.6551,-76.9493 98.1533,-67.7202"/>
<polygon fill="black" stroke="black" points="101.291,-69.2913 103.403,-58.9089 95.2776,-65.7086 101.291,-69.2913"/>
</g>
<!-- Node0x40b69d0&#45;&gt;Node0x40b6960 -->
<g id="edge13" class="edge"><title>Node0x40b69d0&#45;&gt;Node0x40b6960</title>
<path fill="none" stroke="black" d="M312.012,-168.313C315.129,-160.115 318.929,-150.123 322.404,-140.985"/>
<polygon fill="black" stroke="black" points="325.717,-142.12 326,-131.529 319.174,-139.632 325.717,-142.12"/>
</g>
<!-- Node0x40b6a70&#45;&gt;Node0x40b64f0 -->
<g id="edge16" class="edge"><title>Node0x40b6a70&#45;&gt;Node0x40b64f0</title>
<path fill="none" stroke="black" d="M214.139,-241.313C215.382,-233.289 216.891,-223.547 218.282,-214.569"/>
<polygon fill="black" stroke="black" points="221.765,-214.947 219.838,-204.529 214.848,-213.875 221.765,-214.947"/>
</g>
<!-- Node0x40b6a70&#45;&gt;Node0x40b6780 -->
<g id="edge15" class="edge"><title>Node0x40b6a70&#45;&gt;Node0x40b6780</title>
<path fill="none" stroke="black" d="M184.15,-244.642C164.287,-234.569 137.012,-220.736 114.272,-209.204"/>
<polygon fill="black" stroke="black" points="115.664,-205.985 105.162,-204.584 112.498,-212.229 115.664,-205.985"/>
</g>
<!-- Node0x40b6a70&#45;&gt;Node0x40b69d0 -->
<g id="edge14" class="edge"><title>Node0x40b6a70&#45;&gt;Node0x40b69d0</title>
<path fill="none" stroke="black" d="M234.231,-241.313C246.354,-232.156 261.442,-220.76 274.607,-210.816"/>
<polygon fill="black" stroke="black" points="277.061,-213.349 282.931,-204.529 272.842,-207.763 277.061,-213.349"/>
</g>
</g>
</svg>
