<?xml version="1.0" encoding="UTF-8" standalone="no"?>
<!DOCTYPE svg PUBLIC "-//W3C//DTD SVG 1.1//EN"
 "http://www.w3.org/Graphics/SVG/1.1/DTD/svg11.dtd">
<!-- Generated by graphviz version 2.38.0 (20140413.2041)
 -->
<!-- Title: Call graph Pages: 1 -->
<svg width="270pt" height="287pt"
 viewBox="0.00 0.00 270.22 287.00" xmlns="http://www.w3.org/2000/svg" xmlns:xlink="http://www.w3.org/1999/xlink">
<g id="graph0" class="graph" transform="scale(1 1) rotate(0) translate(4 283)">
<title>Call graph</title>
<polygon fill="white" stroke="none" points="-4,4 -4,-283 266.225,-283 266.225,4 -4,4"/>
<text text-anchor="middle" x="131.112" y="-7.8" font-family="Times,serif" font-size="14.00">Call graph</text>
<!-- Node0x47b7350 -->
<g id="node1" class="node"><title>Node0x47b7350</title>
<polygon fill="none" stroke="black" points="125.225,-242.5 125.225,-278.5 215.225,-278.5 215.225,-242.5 125.225,-242.5"/>
<text text-anchor="middle" x="170.225" y="-256.8" font-family="Times,serif" font-size="14.00">external node</text>
</g>
<!-- Node0x47b73f0 -->
<g id="node2" class="node"><title>Node0x47b73f0</title>
<polygon fill="none" stroke="black" points="34.2247,-96.5 34.2247,-132.5 88.2247,-132.5 88.2247,-96.5 34.2247,-96.5"/>
<text text-anchor="middle" x="61.2247" y="-110.8" font-family="Times,serif" font-size="14.00">foo</text>
</g>
<!-- Node0x47b7350&#45;&gt;Node0x47b73f0 -->
<g id="edge1" class="edge"><title>Node0x47b7350&#45;&gt;Node0x47b73f0</title>
<path fill="none" stroke="black" d="M125.012,-258.498C86.4598,-254.953 33.1363,-243.086 6.2247,-206 -3.43328,-192.69 -0.173173,-184.149 6.2247,-169 10.9948,-157.706 19.4442,-147.617 28.3107,-139.327"/>
<polygon fill="black" stroke="black" points="30.8848,-141.727 36.1279,-132.52 26.2879,-136.448 30.8848,-141.727"/>
</g>
<!-- Node0x47b7490 -->
<g id="node3" class="node"><title>Node0x47b7490</title>
<polygon fill="none" stroke="black" points="15.7247,-169.5 15.7247,-205.5 124.725,-205.5 124.725,-169.5 15.7247,-169.5"/>
<text text-anchor="middle" x="70.2247" y="-183.8" font-family="Times,serif" font-size="14.00">llvm.dbg.declare</text>
</g>
<!-- Node0x47b7350&#45;&gt;Node0x47b7490 -->
<g id="edge2" class="edge"><title>Node0x47b7350&#45;&gt;Node0x47b7490</title>
<path fill="none" stroke="black" d="M146.272,-242.494C133.257,-233.253 116.975,-221.692 102.819,-211.642"/>
<polygon fill="black" stroke="black" points="104.508,-208.549 94.3283,-205.614 100.456,-214.257 104.508,-208.549"/>
</g>
<!-- Node0x47b7420 -->
<g id="node4" class="node"><title>Node0x47b7420</title>
<polygon fill="none" stroke="black" points="208.225,-23.5 208.225,-59.5 262.225,-59.5 262.225,-23.5 208.225,-23.5"/>
<text text-anchor="middle" x="235.225" y="-37.8" font-family="Times,serif" font-size="14.00">qux</text>
</g>
<!-- Node0x47b7350&#45;&gt;Node0x47b7420 -->
<g id="edge3" class="edge"><title>Node0x47b7350&#45;&gt;Node0x47b7420</title>
<path fill="none" stroke="black" d="M191.689,-242.416C202.537,-232.764 215.089,-219.872 223.225,-206 248.403,-163.067 248.367,-145.599 244.225,-96 243.508,-87.4206 242.156,-78.1472 240.713,-69.7692"/>
<polygon fill="black" stroke="black" points="244.123,-68.961 238.879,-59.7555 237.238,-70.2225 244.123,-68.961"/>
</g>
<!-- Node0x47b7620 -->
<g id="node5" class="node"><title>Node0x47b7620</title>
<polygon fill="none" stroke="black" points="181.225,-96.5 181.225,-132.5 235.225,-132.5 235.225,-96.5 181.225,-96.5"/>
<text text-anchor="middle" x="208.225" y="-110.8" font-family="Times,serif" font-size="14.00">bar</text>
</g>
<!-- Node0x47b7350&#45;&gt;Node0x47b7620 -->
<g id="edge4" class="edge"><title>Node0x47b7350&#45;&gt;Node0x47b7620</title>
<path fill="none" stroke="black" d="M185.72,-242.051C193.449,-232.198 202.027,-219.232 206.225,-206 212.74,-185.463 212.85,-160.969 211.548,-142.644"/>
<polygon fill="black" stroke="black" points="215.031,-142.294 210.655,-132.645 208.058,-142.917 215.031,-142.294"/>
</g>
<!-- Node0x47b76c0 -->
<g id="node6" class="node"><title>Node0x47b76c0</title>
<polygon fill="none" stroke="black" points="143.225,-169.5 143.225,-205.5 197.225,-205.5 197.225,-169.5 143.225,-169.5"/>
<text text-anchor="middle" x="170.225" y="-183.8" font-family="Times,serif" font-size="14.00">main</text>
</g>
<!-- Node0x47b7350&#45;&gt;Node0x47b76c0 -->
<g id="edge5" class="edge"><title>Node0x47b7350&#45;&gt;Node0x47b76c0</title>
<path fill="none" stroke="black" d="M170.225,-242.313C170.225,-234.289 170.225,-224.547 170.225,-215.569"/>
<polygon fill="black" stroke="black" points="173.725,-215.529 170.225,-205.529 166.725,-215.529 173.725,-215.529"/>
</g>
<!-- Node0x47b7620&#45;&gt;Node0x47b7420 -->
<g id="edge6" class="edge"><title>Node0x47b7620&#45;&gt;Node0x47b7420</title>
<path fill="none" stroke="black" d="M214.761,-96.3129C217.878,-88.1151 221.678,-78.1231 225.153,-68.9847"/>
<polygon fill="black" stroke="black" points="228.466,-70.1199 228.749,-59.5288 221.923,-67.6317 228.466,-70.1199"/>
</g>
<!-- Node0x47b76c0&#45;&gt;Node0x47b73f0 -->
<g id="edge7" class="edge"><title>Node0x47b76c0&#45;&gt;Node0x47b73f0</title>
<path fill="none" stroke="black" d="M144.116,-169.494C129.662,-160.079 111.511,-148.255 95.8818,-138.075"/>
<polygon fill="black" stroke="black" points="97.7872,-135.139 87.4977,-132.614 93.9665,-141.004 97.7872,-135.139"/>
</g>
<!-- Node0x47b76c0&#45;&gt;Node0x47b7620 -->
<g id="edge8" class="edge"><title>Node0x47b76c0&#45;&gt;Node0x47b7620</title>
<path fill="none" stroke="black" d="M179.423,-169.313C183.904,-160.941 189.387,-150.697 194.361,-141.403"/>
<polygon fill="black" stroke="black" points="197.478,-142.997 199.111,-132.529 191.306,-139.694 197.478,-142.997"/>
</g>
</g>
</svg>
