<?xml version="1.0" encoding="UTF-8" standalone="no"?>
<!DOCTYPE svg PUBLIC "-//W3C//DTD SVG 1.1//EN"
 "http://www.w3.org/Graphics/SVG/1.1/DTD/svg11.dtd">
<!-- Generated by graphviz version 2.38.0 (20140413.2041)
 -->
<!-- Title: Call graph Pages: 1 -->
<svg width="348pt" height="432pt"
 viewBox="0.00 0.00 348.00 432.00" xmlns="http://www.w3.org/2000/svg" xmlns:xlink="http://www.w3.org/1999/xlink">
<g id="graph0" class="graph" transform="scale(1 1) rotate(0) translate(4 428)">
<title>Call graph</title>
<polygon fill="white" stroke="none" points="-4,4 -4,-428 344.002,-428 344.002,4 -4,4"/>
<text text-anchor="middle" x="170.001" y="-7.8" font-family="Times,serif" font-size="14.00">Call graph</text>
<!-- Node0x415b4c0 -->
<g id="node1" class="node"><title>Node0x415b4c0</title>
<polygon fill="none" stroke="black" points="172.814,-387.5 172.814,-423.5 262.814,-423.5 262.814,-387.5 172.814,-387.5"/>
<text text-anchor="middle" x="217.814" y="-401.8" font-family="Times,serif" font-size="14.00">external node</text>
</g>
<!-- Node0x415b560 -->
<g id="node2" class="node"><title>Node0x415b560</title>
<polygon fill="none" stroke="black" points="118.814,-168.5 118.814,-204.5 194.814,-204.5 194.814,-168.5 118.814,-168.5"/>
<text text-anchor="middle" x="156.814" y="-182.8" font-family="Times,serif" font-size="14.00">_apex_exit</text>
</g>
<!-- Node0x415b4c0&#45;&gt;Node0x415b560 -->
<g id="edge1" class="edge"><title>Node0x415b4c0&#45;&gt;Node0x415b560</title>
<path fill="none" stroke="black" d="M203.359,-387.289C195.742,-377.307 186.941,-364.141 181.814,-351 164.09,-305.575 158.879,-248.477 157.38,-215.176"/>
<polygon fill="black" stroke="black" points="160.865,-214.711 157.001,-204.846 153.87,-214.968 160.865,-214.711"/>
</g>
<!-- Node0x415b6a0 -->
<g id="node3" class="node"><title>Node0x415b6a0</title>
<polygon fill="none" stroke="black" points="25.3138,-314.5 25.3138,-350.5 134.314,-350.5 134.314,-314.5 25.3138,-314.5"/>
<text text-anchor="middle" x="79.8138" y="-328.8" font-family="Times,serif" font-size="14.00">llvm.dbg.declare</text>
</g>
<!-- Node0x415b4c0&#45;&gt;Node0x415b6a0 -->
<g id="edge2" class="edge"><title>Node0x415b4c0&#45;&gt;Node0x415b6a0</title>
<path fill="none" stroke="black" d="M184.759,-387.494C165.951,-377.817 142.199,-365.597 122.05,-355.23"/>
<polygon fill="black" stroke="black" points="123.57,-352.076 113.077,-350.614 120.368,-358.301 123.57,-352.076"/>
</g>
<!-- Node0x415b600 -->
<g id="node4" class="node"><title>Node0x415b600</title>
<polygon fill="none" stroke="black" points="129.814,-95.5 129.814,-131.5 183.814,-131.5 183.814,-95.5 129.814,-95.5"/>
<text text-anchor="middle" x="156.814" y="-109.8" font-family="Times,serif" font-size="14.00">exit</text>
</g>
<!-- Node0x415b4c0&#45;&gt;Node0x415b600 -->
<g id="edge3" class="edge"><title>Node0x415b4c0&#45;&gt;Node0x415b600</title>
<path fill="none" stroke="black" d="M172.52,-398.919C118.996,-391.285 34.7874,-375.653 15.8138,-351 -40.1799,-278.246 67.1986,-181.547 124.336,-137.778"/>
<polygon fill="black" stroke="black" points="126.5,-140.53 132.376,-131.714 122.284,-134.941 126.5,-140.53"/>
</g>
<!-- Node0x415b7f0 -->
<g id="node5" class="node"><title>Node0x415b7f0</title>
<polygon fill="none" stroke="black" points="213.314,-168.5 213.314,-204.5 326.314,-204.5 326.314,-168.5 213.314,-168.5"/>
<text text-anchor="middle" x="269.814" y="-182.8" font-family="Times,serif" font-size="14.00">_apex_extract_int</text>
</g>
<!-- Node0x415b4c0&#45;&gt;Node0x415b7f0 -->
<g id="edge4" class="edge"><title>Node0x415b4c0&#45;&gt;Node0x415b7f0</title>
<path fill="none" stroke="black" d="M240.263,-387.448C250.921,-377.983 262.652,-365.252 268.814,-351 288.128,-306.33 282.021,-248.161 275.88,-214.608"/>
<polygon fill="black" stroke="black" points="279.281,-213.764 273.917,-204.628 272.413,-215.115 279.281,-213.764"/>
</g>
<!-- Node0x415b860 -->
<g id="node6" class="node"><title>Node0x415b860</title>
<polygon fill="none" stroke="black" points="242.814,-95.5 242.814,-131.5 296.814,-131.5 296.814,-95.5 242.814,-95.5"/>
<text text-anchor="middle" x="269.814" y="-109.8" font-family="Times,serif" font-size="14.00">printf</text>
</g>
<!-- Node0x415b4c0&#45;&gt;Node0x415b860 -->
<g id="edge5" class="edge"><title>Node0x415b4c0&#45;&gt;Node0x415b860</title>
<path fill="none" stroke="black" d="M247.791,-387.447C261.668,-378.228 277.357,-365.711 287.814,-351 327.386,-295.325 325.011,-272.446 335.814,-205 338.415,-188.763 342.89,-182.844 335.814,-168 329.328,-154.393 317.502,-143.124 305.634,-134.495"/>
<polygon fill="black" stroke="black" points="307.302,-131.397 297.06,-128.682 303.374,-137.191 307.302,-131.397"/>
</g>
<!-- Node0x415b9d0 -->
<g id="node7" class="node"><title>Node0x415b9d0</title>
<polygon fill="none" stroke="black" points="209.814,-241.5 209.814,-277.5 263.814,-277.5 263.814,-241.5 209.814,-241.5"/>
<text text-anchor="middle" x="236.814" y="-255.8" font-family="Times,serif" font-size="14.00">foo</text>
</g>
<!-- Node0x415b4c0&#45;&gt;Node0x415b9d0 -->
<g id="edge6" class="edge"><title>Node0x415b4c0&#45;&gt;Node0x415b9d0</title>
<path fill="none" stroke="black" d="M233.426,-387.087C241.19,-377.245 249.762,-364.278 253.814,-351 260.23,-329.971 254.846,-305.417 248.489,-287.195"/>
<polygon fill="black" stroke="black" points="251.74,-285.897 244.925,-277.785 245.194,-288.377 251.74,-285.897"/>
</g>
<!-- Node0x415ba00 -->
<g id="node8" class="node"><title>Node0x415ba00</title>
<polygon fill="none" stroke="black" points="190.814,-314.5 190.814,-350.5 244.814,-350.5 244.814,-314.5 190.814,-314.5"/>
<text text-anchor="middle" x="217.814" y="-328.8" font-family="Times,serif" font-size="14.00">main</text>
</g>
<!-- Node0x415b4c0&#45;&gt;Node0x415ba00 -->
<g id="edge7" class="edge"><title>Node0x415b4c0&#45;&gt;Node0x415ba00</title>
<path fill="none" stroke="black" d="M217.814,-387.313C217.814,-379.289 217.814,-369.547 217.814,-360.569"/>
<polygon fill="black" stroke="black" points="221.314,-360.529 217.814,-350.529 214.314,-360.529 221.314,-360.529"/>
</g>
<!-- Node0x415b560&#45;&gt;Node0x415b600 -->
<g id="edge10" class="edge"><title>Node0x415b560&#45;&gt;Node0x415b600</title>
<path fill="none" stroke="black" d="M156.814,-168.313C156.814,-160.289 156.814,-150.547 156.814,-141.569"/>
<polygon fill="black" stroke="black" points="160.314,-141.529 156.814,-131.529 153.314,-141.529 160.314,-141.529"/>
</g>
<!-- Node0x415b4f0 -->
<g id="node9" class="node"><title>Node0x415b4f0</title>
<ellipse fill="none" stroke="black" cx="212.814" cy="-41" rx="67.6881" ry="18"/>
<text text-anchor="middle" x="212.814" y="-37.3" font-family="Times,serif" font-size="14.00">Node0x415b4f0</text>
</g>
<!-- Node0x415b600&#45;&gt;Node0x415b4f0 -->
<g id="edge8" class="edge"><title>Node0x415b600&#45;&gt;Node0x415b4f0</title>
<path fill="none" stroke="black" d="M170.37,-95.4339C177.18,-86.8609 185.559,-76.3117 193.069,-66.8578"/>
<polygon fill="black" stroke="black" points="195.903,-68.9162 199.383,-58.9089 190.422,-64.5623 195.903,-68.9162"/>
</g>
<!-- Node0x415b7f0&#45;&gt;Node0x415b860 -->
<g id="edge9" class="edge"><title>Node0x415b7f0&#45;&gt;Node0x415b860</title>
<path fill="none" stroke="black" d="M269.814,-168.313C269.814,-160.289 269.814,-150.547 269.814,-141.569"/>
<polygon fill="black" stroke="black" points="273.314,-141.529 269.814,-131.529 266.314,-141.529 273.314,-141.529"/>
</g>
<!-- Node0x415b860&#45;&gt;Node0x415b4f0 -->
<g id="edge11" class="edge"><title>Node0x415b860&#45;&gt;Node0x415b4f0</title>
<path fill="none" stroke="black" d="M256.016,-95.4339C249.084,-86.8609 240.555,-76.3117 232.912,-66.8578"/>
<polygon fill="black" stroke="black" points="235.494,-64.4847 226.485,-58.9089 230.05,-68.8858 235.494,-64.4847"/>
</g>
<!-- Node0x415b9d0&#45;&gt;Node0x415b560 -->
<g id="edge13" class="edge"><title>Node0x415b9d0&#45;&gt;Node0x415b560</title>
<path fill="none" stroke="black" d="M217.448,-241.313C207.327,-232.33 194.778,-221.193 183.727,-211.386"/>
<polygon fill="black" stroke="black" points="185.804,-208.549 176.001,-204.529 181.157,-213.784 185.804,-208.549"/>
</g>
<!-- Node0x415b9d0&#45;&gt;Node0x415b7f0 -->
<g id="edge12" class="edge"><title>Node0x415b9d0&#45;&gt;Node0x415b7f0</title>
<path fill="none" stroke="black" d="M244.802,-241.313C248.653,-233.028 253.356,-222.91 257.639,-213.693"/>
<polygon fill="black" stroke="black" points="260.858,-215.072 261.899,-204.529 254.51,-212.122 260.858,-215.072"/>
</g>
<!-- Node0x415ba00&#45;&gt;Node0x415b9d0 -->
<g id="edge14" class="edge"><title>Node0x415ba00&#45;&gt;Node0x415b9d0</title>
<path fill="none" stroke="black" d="M222.413,-314.313C224.584,-306.202 227.224,-296.336 229.648,-287.277"/>
<polygon fill="black" stroke="black" points="233.053,-288.094 232.257,-277.529 226.291,-286.284 233.053,-288.094"/>
</g>
</g>
</svg>
