<?xml version="1.0" encoding="UTF-8" standalone="no"?>
<!DOCTYPE svg PUBLIC "-//W3C//DTD SVG 1.1//EN"
 "http://www.w3.org/Graphics/SVG/1.1/DTD/svg11.dtd">
<!-- Generated by graphviz version 2.38.0 (20140413.2041)
 -->
<!-- Title: Call graph Pages: 1 -->
<svg width="798pt" height="359pt"
 viewBox="0.00 0.00 797.50 359.00" xmlns="http://www.w3.org/2000/svg" xmlns:xlink="http://www.w3.org/1999/xlink">
<g id="graph0" class="graph" transform="scale(1 1) rotate(0) translate(4 355)">
<title>Call graph</title>
<polygon fill="white" stroke="none" points="-4,4 -4,-355 793.5,-355 793.5,4 -4,4"/>
<text text-anchor="middle" x="394.75" y="-7.8" font-family="Times,serif" font-size="14.00">Call graph</text>
<!-- Node0x3f03690 -->
<g id="node1" class="node"><title>Node0x3f03690</title>
<polygon fill="none" stroke="black" points="358,-314.5 358,-350.5 448,-350.5 448,-314.5 358,-314.5"/>
<text text-anchor="middle" x="403" y="-328.8" font-family="Times,serif" font-size="14.00">external node</text>
</g>
<!-- Node0x3f03730 -->
<g id="node2" class="node"><title>Node0x3f03730</title>
<polygon fill="none" stroke="black" points="321,-241.5 321,-277.5 375,-277.5 375,-241.5 321,-241.5"/>
<text text-anchor="middle" x="348" y="-255.8" font-family="Times,serif" font-size="14.00">main</text>
</g>
<!-- Node0x3f03690&#45;&gt;Node0x3f03730 -->
<g id="edge1" class="edge"><title>Node0x3f03690&#45;&gt;Node0x3f03730</title>
<path fill="none" stroke="black" d="M389.686,-314.313C382.998,-305.679 374.768,-295.055 367.393,-285.534"/>
<polygon fill="black" stroke="black" points="370.082,-283.291 361.191,-277.529 364.548,-287.578 370.082,-283.291"/>
</g>
<!-- Node0x3f2ecf0 -->
<g id="node3" class="node"><title>Node0x3f2ecf0</title>
<polygon fill="none" stroke="black" points="680.5,-241.5 680.5,-277.5 789.5,-277.5 789.5,-241.5 680.5,-241.5"/>
<text text-anchor="middle" x="735" y="-255.8" font-family="Times,serif" font-size="14.00">llvm.dbg.declare</text>
</g>
<!-- Node0x3f03690&#45;&gt;Node0x3f2ecf0 -->
<g id="edge2" class="edge"><title>Node0x3f03690&#45;&gt;Node0x3f2ecf0</title>
<path fill="none" stroke="black" d="M448.282,-322.97C500.801,-312.918 589.913,-295.377 666,-278 667.468,-277.665 668.953,-277.322 670.45,-276.972"/>
<polygon fill="black" stroke="black" points="671.528,-280.314 680.445,-274.592 669.906,-273.504 671.528,-280.314"/>
</g>
<!-- Node0x3f037d0 -->
<g id="node4" class="node"><title>Node0x3f037d0</title>
<polygon fill="none" stroke="black" points="0,-168.5 0,-204.5 54,-204.5 54,-168.5 0,-168.5"/>
<text text-anchor="middle" x="27" y="-182.8" font-family="Times,serif" font-size="14.00">getopt</text>
</g>
<!-- Node0x3f03690&#45;&gt;Node0x3f037d0 -->
<g id="edge3" class="edge"><title>Node0x3f03690&#45;&gt;Node0x3f037d0</title>
<path fill="none" stroke="black" d="M357.697,-323.577C314.043,-315.133 246.616,-299.938 191,-278 144.131,-259.512 93.9233,-230.254 61.5854,-210.034"/>
<polygon fill="black" stroke="black" points="63.2805,-206.965 52.9559,-204.587 59.5441,-212.884 63.2805,-206.965"/>
</g>
<!-- Node0x3f2eaf0 -->
<g id="node5" class="node"><title>Node0x3f2eaf0</title>
<polygon fill="none" stroke="black" points="532,-168.5 532,-204.5 586,-204.5 586,-168.5 532,-168.5"/>
<text text-anchor="middle" x="559" y="-182.8" font-family="Times,serif" font-size="14.00">usage</text>
</g>
<!-- Node0x3f03690&#45;&gt;Node0x3f2eaf0 -->
<g id="edge4" class="edge"><title>Node0x3f03690&#45;&gt;Node0x3f2eaf0</title>
<path fill="none" stroke="black" d="M421.508,-314.416C449.186,-288.867 501.47,-240.605 532.98,-211.518"/>
<polygon fill="black" stroke="black" points="535.542,-213.917 540.516,-204.562 530.794,-208.773 535.542,-213.917"/>
</g>
<!-- Node0x3f2ec80 -->
<g id="node6" class="node"><title>Node0x3f2ec80</title>
<polygon fill="none" stroke="black" points="72.5,-168.5 72.5,-204.5 175.5,-204.5 175.5,-168.5 72.5,-168.5"/>
<text text-anchor="middle" x="124" y="-182.8" font-family="Times,serif" font-size="14.00">setdomainname</text>
</g>
<!-- Node0x3f03690&#45;&gt;Node0x3f2ec80 -->
<g id="edge5" class="edge"><title>Node0x3f03690&#45;&gt;Node0x3f2ec80</title>
<path fill="none" stroke="black" d="M357.704,-318.658C327.487,-309.274 287.339,-295.206 254,-278 217.115,-258.964 178.533,-230.915 153.078,-211.099"/>
<polygon fill="black" stroke="black" points="154.993,-208.152 144.969,-204.719 150.664,-213.653 154.993,-208.152"/>
</g>
<!-- Node0x3f03800 -->
<g id="node7" class="node"><title>Node0x3f03800</title>
<polygon fill="none" stroke="black" points="194,-168.5 194,-204.5 248,-204.5 248,-168.5 194,-168.5"/>
<text text-anchor="middle" x="221" y="-182.8" font-family="Times,serif" font-size="14.00">strlen</text>
</g>
<!-- Node0x3f03690&#45;&gt;Node0x3f03800 -->
<g id="edge6" class="edge"><title>Node0x3f03690&#45;&gt;Node0x3f03800</title>
<path fill="none" stroke="black" d="M357.804,-314.939C336.819,-305.944 312.304,-293.474 293,-278 270.177,-259.705 250.012,-232.923 236.872,-213.239"/>
<polygon fill="black" stroke="black" points="239.734,-211.221 231.345,-204.751 233.868,-215.041 239.734,-211.221"/>
</g>
<!-- Node0x3f2ebb0 -->
<g id="node8" class="node"><title>Node0x3f2ebb0</title>
<polygon fill="none" stroke="black" points="266,-168.5 266,-204.5 320,-204.5 320,-168.5 266,-168.5"/>
<text text-anchor="middle" x="293" y="-182.8" font-family="Times,serif" font-size="14.00">err</text>
</g>
<!-- Node0x3f03690&#45;&gt;Node0x3f2ebb0 -->
<g id="edge7" class="edge"><title>Node0x3f03690&#45;&gt;Node0x3f2ebb0</title>
<path fill="none" stroke="black" d="M358.033,-314.409C341.219,-305.883 323.444,-293.924 312,-278 298.86,-259.715 294.415,-234.301 293.081,-215.058"/>
<polygon fill="black" stroke="black" points="296.566,-214.647 292.619,-204.815 289.574,-214.963 296.566,-214.647"/>
</g>
<!-- Node0x3f2ee00 -->
<g id="node9" class="node"><title>Node0x3f2ee00</title>
<polygon fill="none" stroke="black" points="338,-168.5 338,-204.5 442,-204.5 442,-168.5 338,-168.5"/>
<text text-anchor="middle" x="390" y="-182.8" font-family="Times,serif" font-size="14.00">getdomainname</text>
</g>
<!-- Node0x3f03690&#45;&gt;Node0x3f2ee00 -->
<g id="edge8" class="edge"><title>Node0x3f03690&#45;&gt;Node0x3f2ee00</title>
<path fill="none" stroke="black" d="M401.458,-314.416C399.229,-289.733 395.087,-243.851 392.441,-214.541"/>
<polygon fill="black" stroke="black" points="395.925,-214.207 391.54,-204.562 388.954,-214.836 395.925,-214.207"/>
</g>
<!-- Node0x3f2ee70 -->
<g id="node10" class="node"><title>Node0x3f2ee70</title>
<polygon fill="none" stroke="black" points="460,-168.5 460,-204.5 514,-204.5 514,-168.5 460,-168.5"/>
<text text-anchor="middle" x="487" y="-182.8" font-family="Times,serif" font-size="14.00">printf</text>
</g>
<!-- Node0x3f03690&#45;&gt;Node0x3f2ee70 -->
<g id="edge9" class="edge"><title>Node0x3f03690&#45;&gt;Node0x3f2ee70</title>
<path fill="none" stroke="black" d="M412.966,-314.416C427.554,-289.408 454.835,-242.64 471.896,-213.392"/>
<polygon fill="black" stroke="black" points="475.032,-214.963 477.047,-204.562 468.985,-211.436 475.032,-214.963"/>
</g>
<!-- Node0x3f2f0f0 -->
<g id="node11" class="node"><title>Node0x3f2f0f0</title>
<polygon fill="none" stroke="black" points="495,-95.5 495,-131.5 549,-131.5 549,-95.5 495,-95.5"/>
<text text-anchor="middle" x="522" y="-109.8" font-family="Times,serif" font-size="14.00">fprintf</text>
</g>
<!-- Node0x3f03690&#45;&gt;Node0x3f2f0f0 -->
<g id="edge10" class="edge"><title>Node0x3f03690&#45;&gt;Node0x3f2f0f0</title>
<path fill="none" stroke="black" d="M448.025,-316.816C494.79,-298.814 565.207,-263.293 595,-205 602.484,-190.357 602.435,-182.668 595,-168 590.674,-159.467 573.946,-146.946 557.594,-136.163"/>
<polygon fill="black" stroke="black" points="559.445,-133.192 549.144,-130.712 555.65,-139.074 559.445,-133.192"/>
</g>
<!-- Node0x3f2f190 -->
<g id="node12" class="node"><title>Node0x3f2f190</title>
<polygon fill="none" stroke="black" points="567,-95.5 567,-131.5 621,-131.5 621,-95.5 567,-95.5"/>
<text text-anchor="middle" x="594" y="-109.8" font-family="Times,serif" font-size="14.00">exit</text>
</g>
<!-- Node0x3f03690&#45;&gt;Node0x3f2f190 -->
<g id="edge11" class="edge"><title>Node0x3f03690&#45;&gt;Node0x3f2f190</title>
<path fill="none" stroke="black" d="M448.176,-323.972C481.64,-316.636 526.972,-302.833 560,-278 591.634,-254.215 599.119,-242.753 611,-205 617.6,-184.028 612.202,-159.469 605.793,-141.231"/>
<polygon fill="black" stroke="black" points="609.034,-139.906 602.198,-131.812 602.494,-142.403 609.034,-139.906"/>
</g>
<!-- Node0x3f03730&#45;&gt;Node0x3f037d0 -->
<g id="edge13" class="edge"><title>Node0x3f03730&#45;&gt;Node0x3f037d0</title>
<path fill="none" stroke="black" d="M320.678,-255.825C270.862,-250.431 162.092,-236.269 63.9664,-204.85"/>
<polygon fill="black" stroke="black" points="64.7944,-201.439 54.2017,-201.654 62.6166,-208.091 64.7944,-201.439"/>
</g>
<!-- Node0x3f03730&#45;&gt;Node0x3f2eaf0 -->
<g id="edge14" class="edge"><title>Node0x3f03730&#45;&gt;Node0x3f2eaf0</title>
<path fill="none" stroke="black" d="M375.055,-249.862C408.391,-240.355 465.953,-223.889 514,-205 516.819,-203.892 519.723,-202.653 522.644,-201.361"/>
<polygon fill="black" stroke="black" points="524.288,-204.459 531.953,-197.145 521.4,-198.082 524.288,-204.459"/>
</g>
<!-- Node0x3f03730&#45;&gt;Node0x3f2eaf0 -->
<g id="edge15" class="edge"><title>Node0x3f03730&#45;&gt;Node0x3f2eaf0</title>
<path fill="none" stroke="black" d="M375.088,-253.119C409.642,-244.96 470.491,-228.303 523.678,-208.194"/>
<polygon fill="black" stroke="black" points="525.097,-211.398 533.168,-204.535 522.579,-204.866 525.097,-211.398"/>
</g>
<!-- Node0x3f03730&#45;&gt;Node0x3f2ec80 -->
<g id="edge17" class="edge"><title>Node0x3f03730&#45;&gt;Node0x3f2ec80</title>
<path fill="none" stroke="black" d="M320.98,-249.936C287.591,-239.352 229.757,-221.021 185.365,-206.951"/>
<polygon fill="black" stroke="black" points="186.416,-203.612 175.825,-203.927 184.3,-210.285 186.416,-203.612"/>
</g>
<!-- Node0x3f03730&#45;&gt;Node0x3f03800 -->
<g id="edge16" class="edge"><title>Node0x3f03730&#45;&gt;Node0x3f03800</title>
<path fill="none" stroke="black" d="M320.755,-243.269C302.173,-232.88 277.362,-219.009 257.133,-207.7"/>
<polygon fill="black" stroke="black" points="258.636,-204.531 248.2,-202.706 255.22,-210.641 258.636,-204.531"/>
</g>
<!-- Node0x3f03730&#45;&gt;Node0x3f2ebb0 -->
<g id="edge18" class="edge"><title>Node0x3f03730&#45;&gt;Node0x3f2ebb0</title>
<path fill="none" stroke="black" d="M328.808,-241.313C321.293,-232.766 312.955,-222.269 306.119,-212.823"/>
<polygon fill="black" stroke="black" points="308.924,-210.726 300.33,-204.529 303.184,-214.732 308.924,-210.726"/>
</g>
<!-- Node0x3f03730&#45;&gt;Node0x3f2ebb0 -->
<g id="edge20" class="edge"><title>Node0x3f03730&#45;&gt;Node0x3f2ebb0</title>
<path fill="none" stroke="black" d="M340.564,-241.313C334.721,-232.592 326.588,-221.84 318.636,-212.246"/>
<polygon fill="black" stroke="black" points="321.206,-209.865 312.053,-204.529 315.88,-214.408 321.206,-209.865"/>
</g>
<!-- Node0x3f03730&#45;&gt;Node0x3f2ee00 -->
<g id="edge19" class="edge"><title>Node0x3f03730&#45;&gt;Node0x3f2ee00</title>
<path fill="none" stroke="black" d="M358.167,-241.313C363.12,-232.941 369.179,-222.697 374.677,-213.403"/>
<polygon fill="black" stroke="black" points="377.848,-214.918 379.927,-204.529 371.823,-211.354 377.848,-214.918"/>
</g>
<!-- Node0x3f03730&#45;&gt;Node0x3f2ee70 -->
<g id="edge21" class="edge"><title>Node0x3f03730&#45;&gt;Node0x3f2ee70</title>
<path fill="none" stroke="black" d="M375.131,-244.642C396.753,-233.598 427.222,-218.034 450.903,-205.938"/>
<polygon fill="black" stroke="black" points="452.624,-208.989 459.938,-201.323 449.44,-202.755 452.624,-208.989"/>
</g>
<!-- Node0x3f036c0 -->
<g id="node13" class="node"><title>Node0x3f036c0</title>
<ellipse fill="none" stroke="black" cx="334" cy="-41" rx="67.6881" ry="18"/>
<text text-anchor="middle" x="334" y="-37.3" font-family="Times,serif" font-size="14.00">Node0x3f036c0</text>
</g>
<!-- Node0x3f037d0&#45;&gt;Node0x3f036c0 -->
<g id="edge24" class="edge"><title>Node0x3f037d0&#45;&gt;Node0x3f036c0</title>
<path fill="none" stroke="black" d="M54.0037,-170.375C87.8592,-151.666 147.906,-119.312 201,-95 228.955,-82.1993 260.947,-69.3948 286.548,-59.5788"/>
<polygon fill="black" stroke="black" points="287.925,-62.7995 296.025,-55.9694 285.434,-56.2578 287.925,-62.7995"/>
</g>
<!-- Node0x3f2eaf0&#45;&gt;Node0x3f2f0f0 -->
<g id="edge25" class="edge"><title>Node0x3f2eaf0&#45;&gt;Node0x3f2f0f0</title>
<path fill="none" stroke="black" d="M550.043,-168.313C545.68,-159.941 540.342,-149.697 535.499,-140.403"/>
<polygon fill="black" stroke="black" points="538.599,-138.779 530.874,-131.529 532.392,-142.014 538.599,-138.779"/>
</g>
<!-- Node0x3f2eaf0&#45;&gt;Node0x3f2f190 -->
<g id="edge26" class="edge"><title>Node0x3f2eaf0&#45;&gt;Node0x3f2f190</title>
<path fill="none" stroke="black" d="M567.473,-168.313C571.557,-160.028 576.544,-149.91 581.088,-140.693"/>
<polygon fill="black" stroke="black" points="584.323,-142.046 585.605,-131.529 578.045,-138.951 584.323,-142.046"/>
</g>
<!-- Node0x3f2ec80&#45;&gt;Node0x3f036c0 -->
<g id="edge12" class="edge"><title>Node0x3f2ec80&#45;&gt;Node0x3f036c0</title>
<path fill="none" stroke="black" d="M148.914,-168.475C187.154,-142.345 260.284,-92.3727 302.264,-63.6863"/>
<polygon fill="black" stroke="black" points="304.444,-66.4359 310.726,-57.9042 300.494,-60.6564 304.444,-66.4359"/>
</g>
<!-- Node0x3f03800&#45;&gt;Node0x3f036c0 -->
<g id="edge27" class="edge"><title>Node0x3f03800&#45;&gt;Node0x3f036c0</title>
<path fill="none" stroke="black" d="M234.406,-168.475C254.2,-143.339 291.367,-96.1395 314.275,-67.0494"/>
<polygon fill="black" stroke="black" points="317.174,-69.0246 320.611,-59.0027 311.675,-64.6939 317.174,-69.0246"/>
</g>
<!-- Node0x3f2ebb0&#45;&gt;Node0x3f036c0 -->
<g id="edge28" class="edge"><title>Node0x3f2ebb0&#45;&gt;Node0x3f036c0</title>
<path fill="none" stroke="black" d="M297.864,-168.475C304.892,-143.878 317.956,-98.1551 326.301,-68.9467"/>
<polygon fill="black" stroke="black" points="329.76,-69.5795 329.142,-59.0027 323.029,-67.6564 329.76,-69.5795"/>
</g>
<!-- Node0x3f2ee00&#45;&gt;Node0x3f036c0 -->
<g id="edge29" class="edge"><title>Node0x3f2ee00&#45;&gt;Node0x3f036c0</title>
<path fill="none" stroke="black" d="M383.356,-168.475C373.715,-143.77 355.758,-97.7536 344.366,-68.5634"/>
<polygon fill="black" stroke="black" points="347.531,-67.0461 340.635,-59.0027 341.01,-69.5909 347.531,-67.0461"/>
</g>
<!-- Node0x3f2ee70&#45;&gt;Node0x3f036c0 -->
<g id="edge22" class="edge"><title>Node0x3f2ee70&#45;&gt;Node0x3f036c0</title>
<path fill="none" stroke="black" d="M468.848,-168.475C441.556,-142.878 389.872,-94.4027 359.023,-65.469"/>
<polygon fill="black" stroke="black" points="361.344,-62.848 351.656,-58.5598 356.556,-67.9537 361.344,-62.848"/>
</g>
<!-- Node0x3f2f0f0&#45;&gt;Node0x3f036c0 -->
<g id="edge23" class="edge"><title>Node0x3f2f0f0&#45;&gt;Node0x3f036c0</title>
<path fill="none" stroke="black" d="M494.663,-102.249C464.968,-91.1132 416.988,-73.1204 381.18,-59.6924"/>
<polygon fill="black" stroke="black" points="382.02,-56.2697 371.428,-56.0356 379.563,-62.824 382.02,-56.2697"/>
</g>
<!-- Node0x3f2f190&#45;&gt;Node0x3f036c0 -->
<g id="edge30" class="edge"><title>Node0x3f2f190&#45;&gt;Node0x3f036c0</title>
<path fill="none" stroke="black" d="M566.751,-98.4854C563.834,-97.2173 560.88,-96.0266 558,-95 505.856,-76.4135 444.556,-62.4233 399.277,-53.4974"/>
<polygon fill="black" stroke="black" points="399.773,-50.0284 389.29,-51.5592 398.44,-56.9002 399.773,-50.0284"/>
</g>
</g>
</svg>
