<?xml version="1.0" encoding="UTF-8" standalone="no"?>
<!DOCTYPE svg PUBLIC "-//W3C//DTD SVG 1.1//EN"
 "http://www.w3.org/Graphics/SVG/1.1/DTD/svg11.dtd">
<!-- Generated by graphviz version 2.38.0 (20140413.2041)
 -->
<!-- Title: Call graph Pages: 1 -->
<svg width="804pt" height="359pt"
 viewBox="0.00 0.00 804.01 359.00" xmlns="http://www.w3.org/2000/svg" xmlns:xlink="http://www.w3.org/1999/xlink">
<g id="graph0" class="graph" transform="scale(1 1) rotate(0) translate(4 355)">
<title>Call graph</title>
<polygon fill="white" stroke="none" points="-4,4 -4,-355 800.005,-355 800.005,4 -4,4"/>
<text text-anchor="middle" x="398.003" y="-7.8" font-family="Times,serif" font-size="14.00">Call graph</text>
<!-- Node0x2eb33f0 -->
<g id="node1" class="node"><title>Node0x2eb33f0</title>
<polygon fill="none" stroke="black" points="326.505,-314.5 326.505,-350.5 416.505,-350.5 416.505,-314.5 326.505,-314.5"/>
<text text-anchor="middle" x="371.505" y="-328.8" font-family="Times,serif" font-size="14.00">external node</text>
</g>
<!-- Node0x2eb3490 -->
<g id="node2" class="node"><title>Node0x2eb3490</title>
<polygon fill="none" stroke="black" points="21.5052,-241.5 21.5052,-277.5 97.5052,-277.5 97.5052,-241.5 21.5052,-241.5"/>
<text text-anchor="middle" x="59.5052" y="-255.8" font-family="Times,serif" font-size="14.00">_apex_exit</text>
</g>
<!-- Node0x2eb33f0&#45;&gt;Node0x2eb3490 -->
<g id="edge1" class="edge"><title>Node0x2eb33f0&#45;&gt;Node0x2eb3490</title>
<path fill="none" stroke="black" d="M326.447,-324.624C275.325,-316.333 189.416,-300.922 107.292,-277.998"/>
<polygon fill="black" stroke="black" points="108.133,-274.598 97.5578,-275.239 106.225,-281.333 108.133,-274.598"/>
</g>
<!-- Node0x2eb35d0 -->
<g id="node3" class="node"><title>Node0x2eb35d0</title>
<polygon fill="none" stroke="black" points="687.005,-241.5 687.005,-277.5 796.005,-277.5 796.005,-241.5 687.005,-241.5"/>
<text text-anchor="middle" x="741.505" y="-255.8" font-family="Times,serif" font-size="14.00">llvm.dbg.declare</text>
</g>
<!-- Node0x2eb33f0&#45;&gt;Node0x2eb35d0 -->
<g id="edge2" class="edge"><title>Node0x2eb33f0&#45;&gt;Node0x2eb35d0</title>
<path fill="none" stroke="black" d="M416.58,-324.534C475.614,-315.173 582.223,-297.445 672.505,-278 673.978,-277.683 675.466,-277.356 676.966,-277.022"/>
<polygon fill="black" stroke="black" points="678.018,-280.371 686.978,-274.718 676.448,-273.55 678.018,-280.371"/>
</g>
<!-- Node0x2eb3530 -->
<g id="node4" class="node"><title>Node0x2eb3530</title>
<polygon fill="none" stroke="black" points="71.5052,-95.5 71.5052,-131.5 125.505,-131.5 125.505,-95.5 71.5052,-95.5"/>
<text text-anchor="middle" x="98.5052" y="-109.8" font-family="Times,serif" font-size="14.00">exit</text>
</g>
<!-- Node0x2eb33f0&#45;&gt;Node0x2eb3530 -->
<g id="edge3" class="edge"><title>Node0x2eb33f0&#45;&gt;Node0x2eb3530</title>
<path fill="none" stroke="black" d="M326.231,-331.757C238.96,-331.184 52.5172,-324.417 12.5052,-278 -24.9334,-234.569 31.8644,-172.057 69.5341,-138.298"/>
<polygon fill="black" stroke="black" points="72.0246,-140.769 77.2413,-131.548 67.4126,-135.503 72.0246,-140.769"/>
</g>
<!-- Node0x2eb3720 -->
<g id="node5" class="node"><title>Node0x2eb3720</title>
<polygon fill="none" stroke="black" points="116.005,-241.5 116.005,-277.5 229.005,-277.5 229.005,-241.5 116.005,-241.5"/>
<text text-anchor="middle" x="172.505" y="-255.8" font-family="Times,serif" font-size="14.00">_apex_extract_int</text>
</g>
<!-- Node0x2eb33f0&#45;&gt;Node0x2eb3720 -->
<g id="edge4" class="edge"><title>Node0x2eb33f0&#45;&gt;Node0x2eb3720</title>
<path fill="none" stroke="black" d="M326.349,-315.389C297.79,-305.199 260.614,-291.936 229.961,-280.999"/>
<polygon fill="black" stroke="black" points="230.852,-277.601 220.258,-277.537 228.5,-284.194 230.852,-277.601"/>
</g>
<!-- Node0x2eb3790 -->
<g id="node6" class="node"><title>Node0x2eb3790</title>
<polygon fill="none" stroke="black" points="128.505,-168.5 128.505,-204.5 182.505,-204.5 182.505,-168.5 128.505,-168.5"/>
<text text-anchor="middle" x="155.505" y="-182.8" font-family="Times,serif" font-size="14.00">printf</text>
</g>
<!-- Node0x2eb33f0&#45;&gt;Node0x2eb3790 -->
<g id="edge5" class="edge"><title>Node0x2eb33f0&#45;&gt;Node0x2eb3790</title>
<path fill="none" stroke="black" d="M337.733,-314.322C319.598,-304.548 297.194,-291.572 278.505,-278 258.645,-263.577 256.954,-255.974 237.505,-241 223.005,-229.836 206.199,-218.601 191.591,-209.328"/>
<polygon fill="black" stroke="black" points="193.151,-206.175 182.82,-203.826 189.431,-212.105 193.151,-206.175"/>
</g>
<!-- Node0x2eb37f0 -->
<g id="node7" class="node"><title>Node0x2eb37f0</title>
<polygon fill="none" stroke="black" points="399.505,-241.5 399.505,-277.5 453.505,-277.5 453.505,-241.5 399.505,-241.5"/>
<text text-anchor="middle" x="426.505" y="-255.8" font-family="Times,serif" font-size="14.00">main</text>
</g>
<!-- Node0x2eb33f0&#45;&gt;Node0x2eb37f0 -->
<g id="edge6" class="edge"><title>Node0x2eb33f0&#45;&gt;Node0x2eb37f0</title>
<path fill="none" stroke="black" d="M384.819,-314.313C391.507,-305.679 399.737,-295.055 407.113,-285.534"/>
<polygon fill="black" stroke="black" points="409.957,-287.578 413.314,-277.529 404.423,-283.291 409.957,-287.578"/>
</g>
<!-- Node0x2eb3860 -->
<g id="node8" class="node"><title>Node0x2eb3860</title>
<polygon fill="none" stroke="black" points="200.505,-168.5 200.505,-204.5 254.505,-204.5 254.505,-168.5 200.505,-168.5"/>
<text text-anchor="middle" x="227.505" y="-182.8" font-family="Times,serif" font-size="14.00">getopt</text>
</g>
<!-- Node0x2eb33f0&#45;&gt;Node0x2eb3860 -->
<g id="edge7" class="edge"><title>Node0x2eb33f0&#45;&gt;Node0x2eb3860</title>
<path fill="none" stroke="black" d="M354.421,-314.416C328.98,-288.975 281.019,-241.013 251.894,-211.889"/>
<polygon fill="black" stroke="black" points="254.113,-209.158 244.567,-204.562 249.163,-214.108 254.113,-209.158"/>
</g>
<!-- Node0x2ee0470 -->
<g id="node9" class="node"><title>Node0x2ee0470</title>
<polygon fill="none" stroke="black" points="344.505,-168.5 344.505,-204.5 398.505,-204.5 398.505,-168.5 344.505,-168.5"/>
<text text-anchor="middle" x="371.505" y="-182.8" font-family="Times,serif" font-size="14.00">usage</text>
</g>
<!-- Node0x2eb33f0&#45;&gt;Node0x2ee0470 -->
<g id="edge8" class="edge"><title>Node0x2eb33f0&#45;&gt;Node0x2ee0470</title>
<path fill="none" stroke="black" d="M371.505,-314.416C371.505,-289.841 371.505,-244.253 371.505,-214.927"/>
<polygon fill="black" stroke="black" points="375.005,-214.562 371.505,-204.562 368.005,-214.562 375.005,-214.562"/>
</g>
<!-- Node0x2ee0400 -->
<g id="node10" class="node"><title>Node0x2ee0400</title>
<polygon fill="none" stroke="black" points="272.505,-168.5 272.505,-204.5 326.505,-204.5 326.505,-168.5 272.505,-168.5"/>
<text text-anchor="middle" x="299.505" y="-182.8" font-family="Times,serif" font-size="14.00">strlen</text>
</g>
<!-- Node0x2eb33f0&#45;&gt;Node0x2ee0400 -->
<g id="edge9" class="edge"><title>Node0x2eb33f0&#45;&gt;Node0x2ee0400</title>
<path fill="none" stroke="black" d="M362.963,-314.416C350.513,-289.516 327.277,-243.044 312.642,-213.773"/>
<polygon fill="black" stroke="black" points="315.639,-211.941 308.036,-204.562 309.378,-215.071 315.639,-211.941"/>
</g>
<!-- Node0x2ee05b0 -->
<g id="node11" class="node"><title>Node0x2ee05b0</title>
<polygon fill="none" stroke="black" points="417.005,-168.5 417.005,-204.5 520.005,-204.5 520.005,-168.5 417.005,-168.5"/>
<text text-anchor="middle" x="468.505" y="-182.8" font-family="Times,serif" font-size="14.00">setdomainname</text>
</g>
<!-- Node0x2eb33f0&#45;&gt;Node0x2ee05b0 -->
<g id="edge10" class="edge"><title>Node0x2eb33f0&#45;&gt;Node0x2ee05b0</title>
<path fill="none" stroke="black" d="M416.687,-315.655C433.963,-307.224 452.017,-295.001 462.505,-278 474.101,-259.204 474.791,-233.839 473.046,-214.745"/>
<polygon fill="black" stroke="black" points="476.495,-214.112 471.84,-204.594 469.544,-214.937 476.495,-214.112"/>
</g>
<!-- Node0x2ee04e0 -->
<g id="node12" class="node"><title>Node0x2ee04e0</title>
<polygon fill="none" stroke="black" points="538.505,-168.5 538.505,-204.5 592.505,-204.5 592.505,-168.5 538.505,-168.5"/>
<text text-anchor="middle" x="565.505" y="-182.8" font-family="Times,serif" font-size="14.00">err</text>
</g>
<!-- Node0x2eb33f0&#45;&gt;Node0x2ee04e0 -->
<g id="edge11" class="edge"><title>Node0x2eb33f0&#45;&gt;Node0x2ee04e0</title>
<path fill="none" stroke="black" d="M416.642,-314.393C437.713,-305.275 462.498,-292.861 482.505,-278 507.663,-259.313 531.296,-232.247 546.86,-212.586"/>
<polygon fill="black" stroke="black" points="549.647,-214.703 553.018,-204.659 544.119,-210.409 549.647,-214.703"/>
</g>
<!-- Node0x2ee0730 -->
<g id="node13" class="node"><title>Node0x2ee0730</title>
<polygon fill="none" stroke="black" points="648.505,-168.5 648.505,-204.5 752.505,-204.5 752.505,-168.5 648.505,-168.5"/>
<text text-anchor="middle" x="700.505" y="-182.8" font-family="Times,serif" font-size="14.00">getdomainname</text>
</g>
<!-- Node0x2eb33f0&#45;&gt;Node0x2ee0730 -->
<g id="edge12" class="edge"><title>Node0x2eb33f0&#45;&gt;Node0x2ee0730</title>
<path fill="none" stroke="black" d="M416.572,-331.971C472.079,-330.508 567.258,-321.168 634.505,-278 658.914,-262.331 677.285,-234.199 688.367,-213.446"/>
<polygon fill="black" stroke="black" points="691.505,-214.998 692.942,-204.501 685.273,-211.81 691.505,-214.998"/>
</g>
<!-- Node0x2ee0650 -->
<g id="node14" class="node"><title>Node0x2ee0650</title>
<polygon fill="none" stroke="black" points="365.505,-95.5 365.505,-131.5 419.505,-131.5 419.505,-95.5 365.505,-95.5"/>
<text text-anchor="middle" x="392.505" y="-109.8" font-family="Times,serif" font-size="14.00">fprintf</text>
</g>
<!-- Node0x2eb33f0&#45;&gt;Node0x2ee0650 -->
<g id="edge13" class="edge"><title>Node0x2eb33f0&#45;&gt;Node0x2ee0650</title>
<path fill="none" stroke="black" d="M416.994,-323.057C474.047,-309.601 568.406,-277.056 601.505,-205 608.369,-190.057 611.589,-180.99 601.505,-168 598.825,-164.548 488.894,-137.676 429.572,-123.38"/>
<polygon fill="black" stroke="black" points="430.356,-119.969 419.815,-121.032 428.718,-126.775 430.356,-119.969"/>
</g>
<!-- Node0x2eb3490&#45;&gt;Node0x2eb3530 -->
<g id="edge18" class="edge"><title>Node0x2eb3490&#45;&gt;Node0x2eb3530</title>
<path fill="none" stroke="black" d="M64.1322,-241.416C70.8171,-216.733 83.2436,-170.851 91.1817,-141.541"/>
<polygon fill="black" stroke="black" points="94.6484,-142.129 93.8843,-131.562 87.8918,-140.299 94.6484,-142.129"/>
</g>
<!-- Node0x2eb3420 -->
<g id="node15" class="node"><title>Node0x2eb3420</title>
<ellipse fill="none" stroke="black" cx="318.505" cy="-41" rx="68.7879" ry="18"/>
<text text-anchor="middle" x="318.505" y="-37.3" font-family="Times,serif" font-size="14.00">Node0x2eb3420</text>
</g>
<!-- Node0x2eb3530&#45;&gt;Node0x2eb3420 -->
<g id="edge19" class="edge"><title>Node0x2eb3530&#45;&gt;Node0x2eb3420</title>
<path fill="none" stroke="black" d="M125.924,-103.714C161.155,-92.4236 223.021,-72.5983 267.126,-58.4648"/>
<polygon fill="black" stroke="black" points="268.354,-61.7467 276.809,-55.3619 266.218,-55.0806 268.354,-61.7467"/>
</g>
<!-- Node0x2eb3720&#45;&gt;Node0x2eb3790 -->
<g id="edge14" class="edge"><title>Node0x2eb3720&#45;&gt;Node0x2eb3790</title>
<path fill="none" stroke="black" d="M168.39,-241.313C166.448,-233.202 164.086,-223.336 161.917,-214.277"/>
<polygon fill="black" stroke="black" points="165.315,-213.439 159.583,-204.529 158.507,-215.069 165.315,-213.439"/>
</g>
<!-- Node0x2eb3790&#45;&gt;Node0x2eb3420 -->
<g id="edge20" class="edge"><title>Node0x2eb3790&#45;&gt;Node0x2eb3420</title>
<path fill="none" stroke="black" d="M174.844,-168.475C203.997,-142.81 259.276,-94.1433 292.11,-65.2373"/>
<polygon fill="black" stroke="black" points="294.752,-67.575 299.945,-58.3401 290.126,-62.3209 294.752,-67.575"/>
</g>
<!-- Node0x2eb37f0&#45;&gt;Node0x2eb3790 -->
<g id="edge29" class="edge"><title>Node0x2eb37f0&#45;&gt;Node0x2eb3790</title>
<path fill="none" stroke="black" d="M399.155,-254.363C356.471,-247.464 271.507,-231.956 192.365,-204.897"/>
<polygon fill="black" stroke="black" points="193.341,-201.531 182.746,-201.54 191.034,-208.14 193.341,-201.531"/>
</g>
<!-- Node0x2eb37f0&#45;&gt;Node0x2eb3860 -->
<g id="edge21" class="edge"><title>Node0x2eb37f0&#45;&gt;Node0x2eb3860</title>
<path fill="none" stroke="black" d="M399.279,-250.794C368.436,-241.8 316.598,-225.887 264.275,-205.068"/>
<polygon fill="black" stroke="black" points="265.433,-201.761 254.85,-201.265 262.814,-208.253 265.433,-201.761"/>
</g>
<!-- Node0x2eb37f0&#45;&gt;Node0x2ee0470 -->
<g id="edge22" class="edge"><title>Node0x2eb37f0&#45;&gt;Node0x2ee0470</title>
<path fill="none" stroke="black" d="M407.313,-241.313C399.798,-232.766 391.461,-222.269 384.624,-212.823"/>
<polygon fill="black" stroke="black" points="387.429,-210.726 378.835,-204.529 381.689,-214.732 387.429,-210.726"/>
</g>
<!-- Node0x2eb37f0&#45;&gt;Node0x2ee0470 -->
<g id="edge23" class="edge"><title>Node0x2eb37f0&#45;&gt;Node0x2ee0470</title>
<path fill="none" stroke="black" d="M419.07,-241.313C413.226,-232.592 405.094,-221.84 397.141,-212.246"/>
<polygon fill="black" stroke="black" points="399.711,-209.865 390.558,-204.529 394.386,-214.408 399.711,-209.865"/>
</g>
<!-- Node0x2eb37f0&#45;&gt;Node0x2ee0400 -->
<g id="edge24" class="edge"><title>Node0x2eb37f0&#45;&gt;Node0x2ee0400</title>
<path fill="none" stroke="black" d="M399.261,-243.269C380.678,-232.88 355.867,-219.009 335.638,-207.7"/>
<polygon fill="black" stroke="black" points="337.141,-204.531 326.705,-202.706 333.726,-210.641 337.141,-204.531"/>
</g>
<!-- Node0x2eb37f0&#45;&gt;Node0x2ee05b0 -->
<g id="edge25" class="edge"><title>Node0x2eb37f0&#45;&gt;Node0x2ee05b0</title>
<path fill="none" stroke="black" d="M436.672,-241.313C441.625,-232.941 447.684,-222.697 453.183,-213.403"/>
<polygon fill="black" stroke="black" points="456.353,-214.918 458.432,-204.529 450.328,-211.354 456.353,-214.918"/>
</g>
<!-- Node0x2eb37f0&#45;&gt;Node0x2ee04e0 -->
<g id="edge26" class="edge"><title>Node0x2eb37f0&#45;&gt;Node0x2ee04e0</title>
<path fill="none" stroke="black" d="M453.606,-241.674C475.173,-230.017 505.389,-214.605 529.054,-203.2"/>
<polygon fill="black" stroke="black" points="530.577,-206.352 538.097,-198.889 527.564,-200.034 530.577,-206.352"/>
</g>
<!-- Node0x2eb37f0&#45;&gt;Node0x2ee04e0 -->
<g id="edge28" class="edge"><title>Node0x2eb37f0&#45;&gt;Node0x2ee04e0</title>
<path fill="none" stroke="black" d="M453.619,-247.25C475.254,-237.067 505.569,-221.784 529.251,-209.224"/>
<polygon fill="black" stroke="black" points="531.13,-212.189 538.295,-204.385 527.827,-206.017 531.13,-212.189"/>
</g>
<!-- Node0x2eb37f0&#45;&gt;Node0x2ee0730 -->
<g id="edge27" class="edge"><title>Node0x2eb37f0&#45;&gt;Node0x2ee0730</title>
<path fill="none" stroke="black" d="M453.779,-251.433C496.581,-240.342 580.621,-218.565 638.637,-203.532"/>
<polygon fill="black" stroke="black" points="639.629,-206.89 648.432,-200.994 637.873,-200.114 639.629,-206.89"/>
</g>
<!-- Node0x2eb3860&#45;&gt;Node0x2eb3420 -->
<g id="edge30" class="edge"><title>Node0x2eb3860&#45;&gt;Node0x2eb3420</title>
<path fill="none" stroke="black" d="M238.301,-168.475C254.105,-143.554 283.66,-96.9482 302.143,-67.8025"/>
<polygon fill="black" stroke="black" points="305.323,-69.3222 307.723,-59.0027 299.412,-65.5734 305.323,-69.3222"/>
</g>
<!-- Node0x2ee0470&#45;&gt;Node0x2eb3530 -->
<g id="edge16" class="edge"><title>Node0x2ee0470&#45;&gt;Node0x2eb3530</title>
<path fill="none" stroke="black" d="M344.267,-171.455C341.348,-170.193 338.391,-169.012 335.505,-168 266.859,-143.93 183.146,-128.011 135.819,-120.184"/>
<polygon fill="black" stroke="black" points="136.159,-116.693 125.728,-118.547 135.039,-123.603 136.159,-116.693"/>
</g>
<!-- Node0x2ee0470&#45;&gt;Node0x2ee0650 -->
<g id="edge15" class="edge"><title>Node0x2ee0470&#45;&gt;Node0x2ee0650</title>
<path fill="none" stroke="black" d="M376.589,-168.313C378.988,-160.202 381.906,-150.336 384.585,-141.277"/>
<polygon fill="black" stroke="black" points="387.988,-142.111 387.469,-131.529 381.276,-140.125 387.988,-142.111"/>
</g>
<!-- Node0x2ee0400&#45;&gt;Node0x2eb3420 -->
<g id="edge17" class="edge"><title>Node0x2ee0400&#45;&gt;Node0x2eb3420</title>
<path fill="none" stroke="black" d="M301.759,-168.475C305.016,-143.878 311.07,-98.1551 314.937,-68.9467"/>
<polygon fill="black" stroke="black" points="318.411,-69.3756 316.254,-59.0027 311.472,-68.4567 318.411,-69.3756"/>
</g>
<!-- Node0x2ee05b0&#45;&gt;Node0x2eb3420 -->
<g id="edge31" class="edge"><title>Node0x2ee05b0&#45;&gt;Node0x2eb3420</title>
<path fill="none" stroke="black" d="M416.744,-169.872C395.856,-161.432 372.875,-149.143 356.505,-132 339.825,-114.532 329.943,-88.6483 324.458,-69.1171"/>
<polygon fill="black" stroke="black" points="327.808,-68.091 321.913,-59.2877 321.032,-69.8458 327.808,-68.091"/>
</g>
<!-- Node0x2ee04e0&#45;&gt;Node0x2eb3420 -->
<g id="edge32" class="edge"><title>Node0x2ee04e0&#45;&gt;Node0x2eb3420</title>
<path fill="none" stroke="black" d="M541.871,-168.471C515.043,-149.48 469.655,-118.364 428.505,-95 406.924,-82.7468 382.077,-70.6167 361.465,-61.0596"/>
<polygon fill="black" stroke="black" points="362.867,-57.8523 352.319,-56.8584 359.945,-64.2132 362.867,-57.8523"/>
</g>
<!-- Node0x2ee0730&#45;&gt;Node0x2eb3420 -->
<g id="edge33" class="edge"><title>Node0x2ee0730&#45;&gt;Node0x2eb3420</title>
<path fill="none" stroke="black" d="M658.925,-168.446C613.197,-149.837 537.445,-119.438 471.505,-95 437.522,-82.4054 398.962,-69.0542 369.055,-58.9027"/>
<polygon fill="black" stroke="black" points="369.858,-55.4794 359.263,-55.5884 367.613,-62.1099 369.858,-55.4794"/>
</g>
<!-- Node0x2ee0650&#45;&gt;Node0x2eb3420 -->
<g id="edge34" class="edge"><title>Node0x2ee0650&#45;&gt;Node0x2eb3420</title>
<path fill="none" stroke="black" d="M374.592,-95.4339C365.252,-86.5361 353.679,-75.5097 343.475,-65.7884"/>
<polygon fill="black" stroke="black" points="345.653,-63.0294 335.998,-58.6657 340.824,-68.0975 345.653,-63.0294"/>
</g>
</g>
</svg>
