<?xml version="1.0" encoding="UTF-8" standalone="no"?>
<!DOCTYPE svg PUBLIC "-//W3C//DTD SVG 1.1//EN"
 "http://www.w3.org/Graphics/SVG/1.1/DTD/svg11.dtd">
<!-- Generated by graphviz version 2.38.0 (20140413.2041)
 -->
<!-- Title: Call graph Pages: 1 -->
<svg width="926pt" height="359pt"
 viewBox="0.00 0.00 925.88 359.00" xmlns="http://www.w3.org/2000/svg" xmlns:xlink="http://www.w3.org/1999/xlink">
<g id="graph0" class="graph" transform="scale(1 1) rotate(0) translate(4 355)">
<title>Call graph</title>
<polygon fill="white" stroke="none" points="-4,4 -4,-355 921.875,-355 921.875,4 -4,4"/>
<text text-anchor="middle" x="458.938" y="-7.8" font-family="Times,serif" font-size="14.00">Call graph</text>
<!-- Node0x45b76e0 -->
<g id="node1" class="node"><title>Node0x45b76e0</title>
<polygon fill="none" stroke="black" points="360.375,-314.5 360.375,-350.5 450.375,-350.5 450.375,-314.5 360.375,-314.5"/>
<text text-anchor="middle" x="405.375" y="-328.8" font-family="Times,serif" font-size="14.00">external node</text>
</g>
<!-- Node0x45b7780 -->
<g id="node2" class="node"><title>Node0x45b7780</title>
<polygon fill="none" stroke="black" points="13.3751,-168.5 13.3751,-204.5 89.3751,-204.5 89.3751,-168.5 13.3751,-168.5"/>
<text text-anchor="middle" x="51.3751" y="-182.8" font-family="Times,serif" font-size="14.00">_apex_exit</text>
</g>
<!-- Node0x45b76e0&#45;&gt;Node0x45b7780 -->
<g id="edge1" class="edge"><title>Node0x45b76e0&#45;&gt;Node0x45b7780</title>
<path fill="none" stroke="black" d="M360.263,-328.172C286.48,-321.972 144.116,-306.615 103.375,-278 81.4564,-262.605 67.5132,-234.817 59.6429,-214.08"/>
<polygon fill="black" stroke="black" points="62.9037,-212.803 56.2587,-204.551 56.3073,-215.146 62.9037,-212.803"/>
</g>
<!-- Node0x45de940 -->
<g id="node3" class="node"><title>Node0x45de940</title>
<polygon fill="none" stroke="black" points="808.875,-241.5 808.875,-277.5 917.875,-277.5 917.875,-241.5 808.875,-241.5"/>
<text text-anchor="middle" x="863.375" y="-255.8" font-family="Times,serif" font-size="14.00">llvm.dbg.declare</text>
</g>
<!-- Node0x45b76e0&#45;&gt;Node0x45de940 -->
<g id="edge2" class="edge"><title>Node0x45b76e0&#45;&gt;Node0x45de940</title>
<path fill="none" stroke="black" d="M450.607,-327.319C522.407,-320.254 666.958,-304.293 798.803,-277.963"/>
<polygon fill="black" stroke="black" points="799.568,-281.379 808.676,-275.967 798.181,-274.518 799.568,-281.379"/>
</g>
<!-- Node0x45b7820 -->
<g id="node4" class="node"><title>Node0x45b7820</title>
<polygon fill="none" stroke="black" points="24.3751,-95.5 24.3751,-131.5 78.3751,-131.5 78.3751,-95.5 24.3751,-95.5"/>
<text text-anchor="middle" x="51.3751" y="-109.8" font-family="Times,serif" font-size="14.00">exit</text>
</g>
<!-- Node0x45b76e0&#45;&gt;Node0x45b7820 -->
<g id="edge3" class="edge"><title>Node0x45b76e0&#45;&gt;Node0x45b7820</title>
<path fill="none" stroke="black" d="M360.337,-328.088C280.691,-321.444 118.734,-305.003 69.3751,-278 31.2637,-257.15 19.8308,-245.6 4.37508,-205 -1.47548,-189.632 -1.42412,-183.388 4.37508,-168 8.44757,-157.194 15.8053,-147.151 23.5087,-138.753"/>
<polygon fill="black" stroke="black" points="26.0917,-141.118 30.5961,-131.528 21.0946,-136.216 26.0917,-141.118"/>
</g>
<!-- Node0x45dea90 -->
<g id="node5" class="node"><title>Node0x45dea90</title>
<polygon fill="none" stroke="black" points="145.875,-168.5 145.875,-204.5 258.875,-204.5 258.875,-168.5 145.875,-168.5"/>
<text text-anchor="middle" x="202.375" y="-182.8" font-family="Times,serif" font-size="14.00">_apex_extract_int</text>
</g>
<!-- Node0x45b76e0&#45;&gt;Node0x45dea90 -->
<g id="edge4" class="edge"><title>Node0x45b76e0&#45;&gt;Node0x45dea90</title>
<path fill="none" stroke="black" d="M362.353,-314.411C341.279,-305.104 316.056,-292.523 295.375,-278 268.152,-258.883 241.393,-231.711 223.62,-212.136"/>
<polygon fill="black" stroke="black" points="226.083,-209.64 216.808,-204.519 220.865,-214.306 226.083,-209.64"/>
</g>
<!-- Node0x45deb00 -->
<g id="node6" class="node"><title>Node0x45deb00</title>
<polygon fill="none" stroke="black" points="218.375,-95.5 218.375,-131.5 272.375,-131.5 272.375,-95.5 218.375,-95.5"/>
<text text-anchor="middle" x="245.375" y="-109.8" font-family="Times,serif" font-size="14.00">printf</text>
</g>
<!-- Node0x45b76e0&#45;&gt;Node0x45deb00 -->
<g id="edge5" class="edge"><title>Node0x45b76e0&#45;&gt;Node0x45deb00</title>
<path fill="none" stroke="black" d="M360.297,-326.31C295.962,-316.115 180.693,-286.787 136.375,-205 128.541,-190.542 127.678,-181.957 136.375,-168 151.955,-142.998 183.006,-129.35 207.994,-122.11"/>
<polygon fill="black" stroke="black" points="209.157,-125.423 217.922,-119.47 207.358,-118.658 209.157,-125.423"/>
</g>
<!-- Node0x45dec70 -->
<g id="node7" class="node"><title>Node0x45dec70</title>
<polygon fill="none" stroke="black" points="304.375,-241.5 304.375,-277.5 358.375,-277.5 358.375,-241.5 304.375,-241.5"/>
<text text-anchor="middle" x="331.375" y="-255.8" font-family="Times,serif" font-size="14.00">main</text>
</g>
<!-- Node0x45b76e0&#45;&gt;Node0x45dec70 -->
<g id="edge6" class="edge"><title>Node0x45b76e0&#45;&gt;Node0x45dec70</title>
<path fill="none" stroke="black" d="M387.462,-314.313C378.19,-305.417 366.717,-294.409 356.568,-284.672"/>
<polygon fill="black" stroke="black" points="358.762,-281.927 349.123,-277.529 353.916,-286.978 358.762,-281.927"/>
</g>
<!-- Node0x45dece0 -->
<g id="node8" class="node"><title>Node0x45dece0</title>
<polygon fill="none" stroke="black" points="315.375,-168.5 315.375,-204.5 369.375,-204.5 369.375,-168.5 315.375,-168.5"/>
<text text-anchor="middle" x="342.375" y="-182.8" font-family="Times,serif" font-size="14.00">getopt</text>
</g>
<!-- Node0x45b76e0&#45;&gt;Node0x45dece0 -->
<g id="edge7" class="edge"><title>Node0x45b76e0&#45;&gt;Node0x45dece0</title>
<path fill="none" stroke="black" d="M398.431,-314.4C390.961,-296.139 378.634,-266.392 367.375,-241 363.45,-232.148 359.018,-222.545 354.988,-213.95"/>
<polygon fill="black" stroke="black" points="358.088,-212.319 350.656,-204.768 351.757,-215.306 358.088,-212.319"/>
</g>
<!-- Node0x45ded10 -->
<g id="node9" class="node"><title>Node0x45ded10</title>
<polygon fill="none" stroke="black" points="387.375,-168.5 387.375,-204.5 441.375,-204.5 441.375,-168.5 387.375,-168.5"/>
<text text-anchor="middle" x="414.375" y="-182.8" font-family="Times,serif" font-size="14.00">strlen</text>
</g>
<!-- Node0x45b76e0&#45;&gt;Node0x45ded10 -->
<g id="edge8" class="edge"><title>Node0x45b76e0&#45;&gt;Node0x45ded10</title>
<path fill="none" stroke="black" d="M406.443,-314.416C407.979,-289.841 410.828,-244.253 412.661,-214.927"/>
<polygon fill="black" stroke="black" points="416.178,-214.761 413.309,-204.562 409.192,-214.324 416.178,-214.761"/>
</g>
<!-- Node0x45dee50 -->
<g id="node10" class="node"><title>Node0x45dee50</title>
<polygon fill="none" stroke="black" points="459.875,-168.5 459.875,-204.5 562.875,-204.5 562.875,-168.5 459.875,-168.5"/>
<text text-anchor="middle" x="511.375" y="-182.8" font-family="Times,serif" font-size="14.00">setdomainname</text>
</g>
<!-- Node0x45b76e0&#45;&gt;Node0x45dee50 -->
<g id="edge9" class="edge"><title>Node0x45b76e0&#45;&gt;Node0x45dee50</title>
<path fill="none" stroke="black" d="M417.951,-314.416C436.519,-289.192 471.384,-241.828 492.872,-212.637"/>
<polygon fill="black" stroke="black" points="495.706,-214.69 498.816,-204.562 490.069,-210.54 495.706,-214.69"/>
</g>
<!-- Node0x45debd0 -->
<g id="node11" class="node"><title>Node0x45debd0</title>
<polygon fill="none" stroke="black" points="639.375,-95.5 639.375,-131.5 693.375,-131.5 693.375,-95.5 639.375,-95.5"/>
<text text-anchor="middle" x="666.375" y="-109.8" font-family="Times,serif" font-size="14.00">err</text>
</g>
<!-- Node0x45b76e0&#45;&gt;Node0x45debd0 -->
<g id="edge10" class="edge"><title>Node0x45b76e0&#45;&gt;Node0x45debd0</title>
<path fill="none" stroke="black" d="M450.596,-326.864C517.422,-317.296 640.444,-288.669 694.375,-205 707.144,-185.19 696.843,-159.2 685.3,-140.156"/>
<polygon fill="black" stroke="black" points="688.184,-138.171 679.808,-131.683 682.31,-141.978 688.184,-138.171"/>
</g>
<!-- Node0x45ded80 -->
<g id="node12" class="node"><title>Node0x45ded80</title>
<polygon fill="none" stroke="black" points="581.375,-168.5 581.375,-204.5 685.375,-204.5 685.375,-168.5 581.375,-168.5"/>
<text text-anchor="middle" x="633.375" y="-182.8" font-family="Times,serif" font-size="14.00">getdomainname</text>
</g>
<!-- Node0x45b76e0&#45;&gt;Node0x45ded80 -->
<g id="edge11" class="edge"><title>Node0x45b76e0&#45;&gt;Node0x45ded80</title>
<path fill="none" stroke="black" d="M432.425,-314.416C473.563,-288.434 551.893,-238.962 597.661,-210.056"/>
<polygon fill="black" stroke="black" points="599.774,-212.861 606.36,-204.562 596.036,-206.943 599.774,-212.861"/>
</g>
<!-- Node0x45df240 -->
<g id="node13" class="node"><title>Node0x45df240</title>
<polygon fill="none" stroke="black" points="736.375,-241.5 736.375,-277.5 790.375,-277.5 790.375,-241.5 736.375,-241.5"/>
<text text-anchor="middle" x="763.375" y="-255.8" font-family="Times,serif" font-size="14.00">fprintf</text>
</g>
<!-- Node0x45b76e0&#45;&gt;Node0x45df240 -->
<g id="edge12" class="edge"><title>Node0x45b76e0&#45;&gt;Node0x45df240</title>
<path fill="none" stroke="black" d="M450.489,-327.276C512.655,-320.694 627.713,-305.765 722.375,-278 723.814,-277.578 725.27,-277.12 726.732,-276.633"/>
<polygon fill="black" stroke="black" points="728.181,-279.829 736.357,-273.091 725.764,-273.26 728.181,-279.829"/>
</g>
<!-- Node0x45b7780&#45;&gt;Node0x45b7820 -->
<g id="edge16" class="edge"><title>Node0x45b7780&#45;&gt;Node0x45b7820</title>
<path fill="none" stroke="black" d="M51.3751,-168.313C51.3751,-160.289 51.3751,-150.547 51.3751,-141.569"/>
<polygon fill="black" stroke="black" points="54.8752,-141.529 51.3751,-131.529 47.8752,-141.529 54.8752,-141.529"/>
</g>
<!-- Node0x45b7710 -->
<g id="node14" class="node"><title>Node0x45b7710</title>
<ellipse fill="none" stroke="black" cx="455.375" cy="-41" rx="69.5877" ry="18"/>
<text text-anchor="middle" x="455.375" y="-37.3" font-family="Times,serif" font-size="14.00">Node0x45b7710</text>
</g>
<!-- Node0x45b7820&#45;&gt;Node0x45b7710 -->
<g id="edge17" class="edge"><title>Node0x45b7820&#45;&gt;Node0x45b7710</title>
<path fill="none" stroke="black" d="M78.51,-107.765C141.455,-96.7806 298.901,-69.3054 389.116,-53.5625"/>
<polygon fill="black" stroke="black" points="389.989,-56.9633 399.238,-51.7962 388.785,-50.0675 389.989,-56.9633"/>
</g>
<!-- Node0x45dea90&#45;&gt;Node0x45deb00 -->
<g id="edge13" class="edge"><title>Node0x45dea90&#45;&gt;Node0x45deb00</title>
<path fill="none" stroke="black" d="M212.784,-168.313C217.908,-159.853 224.188,-149.484 229.863,-140.112"/>
<polygon fill="black" stroke="black" points="232.875,-141.896 235.062,-131.529 226.888,-138.269 232.875,-141.896"/>
</g>
<!-- Node0x45deb00&#45;&gt;Node0x45b7710 -->
<g id="edge18" class="edge"><title>Node0x45deb00&#45;&gt;Node0x45b7710</title>
<path fill="none" stroke="black" d="M272.399,-103.428C305.832,-92.2038 363.428,-72.868 405.084,-58.8835"/>
<polygon fill="black" stroke="black" points="406.408,-62.131 414.774,-55.6303 404.18,-55.4949 406.408,-62.131"/>
</g>
<!-- Node0x45dec70&#45;&gt;Node0x45b7780 -->
<g id="edge21" class="edge"><title>Node0x45dec70&#45;&gt;Node0x45b7780</title>
<path fill="none" stroke="black" d="M304.273,-251.628C256.918,-239.62 158.536,-214.673 99.4072,-199.68"/>
<polygon fill="black" stroke="black" points="100.11,-196.247 89.5569,-197.182 98.3898,-203.032 100.11,-196.247"/>
</g>
<!-- Node0x45dec70&#45;&gt;Node0x45dea90 -->
<g id="edge20" class="edge"><title>Node0x45dec70&#45;&gt;Node0x45dea90</title>
<path fill="none" stroke="black" d="M304.332,-243.616C286.393,-233.743 262.538,-220.613 242.413,-209.536"/>
<polygon fill="black" stroke="black" points="243.912,-206.366 233.464,-204.611 240.537,-212.499 243.912,-206.366"/>
</g>
<!-- Node0x45dec70&#45;&gt;Node0x45deb00 -->
<g id="edge25" class="edge"><title>Node0x45dec70&#45;&gt;Node0x45deb00</title>
<path fill="none" stroke="black" d="M321.172,-241.416C306.237,-216.408 278.306,-169.64 260.839,-140.392"/>
<polygon fill="black" stroke="black" points="263.697,-138.353 255.565,-131.562 257.687,-141.942 263.697,-138.353"/>
</g>
<!-- Node0x45dec70&#45;&gt;Node0x45dece0 -->
<g id="edge19" class="edge"><title>Node0x45dec70&#45;&gt;Node0x45dece0</title>
<path fill="none" stroke="black" d="M334.038,-241.313C335.281,-233.289 336.79,-223.547 338.181,-214.569"/>
<polygon fill="black" stroke="black" points="341.664,-214.947 339.737,-204.529 334.747,-213.875 341.664,-214.947"/>
</g>
<!-- Node0x45dec70&#45;&gt;Node0x45ded10 -->
<g id="edge22" class="edge"><title>Node0x45dec70&#45;&gt;Node0x45ded10</title>
<path fill="none" stroke="black" d="M351.467,-241.313C362.07,-232.243 375.24,-220.977 386.786,-211.1"/>
<polygon fill="black" stroke="black" points="389.144,-213.689 394.468,-204.529 384.594,-208.37 389.144,-213.689"/>
</g>
<!-- Node0x45dec70&#45;&gt;Node0x45dee50 -->
<g id="edge23" class="edge"><title>Node0x45dec70&#45;&gt;Node0x45dee50</title>
<path fill="none" stroke="black" d="M358.713,-247.717C385.119,-237.301 425.813,-221.25 458.547,-208.338"/>
<polygon fill="black" stroke="black" points="459.969,-211.54 467.987,-204.614 457.4,-205.028 459.969,-211.54"/>
</g>
<!-- Node0x45dec70&#45;&gt;Node0x45ded80 -->
<g id="edge24" class="edge"><title>Node0x45dec70&#45;&gt;Node0x45ded80</title>
<path fill="none" stroke="black" d="M358.609,-253.019C401.691,-244.226 488.388,-226.041 571.354,-205.187"/>
<polygon fill="black" stroke="black" points="572.353,-208.545 581.188,-202.698 570.635,-201.759 572.353,-208.545"/>
</g>
<!-- Node0x45dece0&#45;&gt;Node0x45b7710 -->
<g id="edge26" class="edge"><title>Node0x45dece0&#45;&gt;Node0x45b7710</title>
<path fill="none" stroke="black" d="M355.781,-168.475C375.575,-143.339 412.743,-96.1395 435.65,-67.0494"/>
<polygon fill="black" stroke="black" points="438.549,-69.0246 441.986,-59.0027 433.05,-64.6939 438.549,-69.0246"/>
</g>
<!-- Node0x45ded10&#45;&gt;Node0x45b7710 -->
<g id="edge14" class="edge"><title>Node0x45ded10&#45;&gt;Node0x45b7710</title>
<path fill="none" stroke="black" d="M419.239,-168.475C426.267,-143.878 439.331,-98.1551 447.676,-68.9467"/>
<polygon fill="black" stroke="black" points="451.135,-69.5795 450.517,-59.0027 444.405,-67.6564 451.135,-69.5795"/>
</g>
<!-- Node0x45dee50&#45;&gt;Node0x45b7710 -->
<g id="edge15" class="edge"><title>Node0x45dee50&#45;&gt;Node0x45b7710</title>
<path fill="none" stroke="black" d="M504.731,-168.475C495.09,-143.77 477.133,-97.7536 465.741,-68.5634"/>
<polygon fill="black" stroke="black" points="468.906,-67.0461 462.01,-59.0027 462.385,-69.5909 468.906,-67.0461"/>
</g>
<!-- Node0x45debd0&#45;&gt;Node0x45b7710 -->
<g id="edge27" class="edge"><title>Node0x45debd0&#45;&gt;Node0x45b7710</title>
<path fill="none" stroke="black" d="M639.222,-103.428C605.63,-92.2038 547.76,-72.868 505.906,-58.8835"/>
<polygon fill="black" stroke="black" points="506.763,-55.4798 496.169,-55.6303 504.545,-62.119 506.763,-55.4798"/>
</g>
<!-- Node0x45ded80&#45;&gt;Node0x45b7710 -->
<g id="edge28" class="edge"><title>Node0x45ded80&#45;&gt;Node0x45b7710</title>
<path fill="none" stroke="black" d="M612.257,-168.475C580.286,-142.701 519.542,-93.7304 483.745,-64.8709"/>
<polygon fill="black" stroke="black" points="485.626,-61.8916 475.644,-58.3401 481.232,-67.3412 485.626,-61.8916"/>
</g>
<!-- Node0x45df240&#45;&gt;Node0x45b7710 -->
<g id="edge29" class="edge"><title>Node0x45df240&#45;&gt;Node0x45b7710</title>
<path fill="none" stroke="black" d="M762.225,-241.396C759.011,-207.889 746.965,-133.524 702.375,-95 676.661,-72.7846 591.576,-58.0444 528.417,-49.8695"/>
<polygon fill="black" stroke="black" points="528.841,-46.3953 518.481,-48.6137 527.963,-53.34 528.841,-46.3953"/>
</g>
</g>
</svg>
