<?xml version="1.0" encoding="UTF-8" standalone="no"?>
<!DOCTYPE svg PUBLIC "-//W3C//DTD SVG 1.1//EN"
 "http://www.w3.org/Graphics/SVG/1.1/DTD/svg11.dtd">
<!-- Generated by graphviz version 2.38.0 (20140413.2041)
 -->
<!-- Title: Call graph Pages: 1 -->
<svg width="621pt" height="286pt"
 viewBox="0.00 0.00 621.46 286.00" xmlns="http://www.w3.org/2000/svg" xmlns:xlink="http://www.w3.org/1999/xlink">
<g id="graph0" class="graph" transform="scale(1 1) rotate(0) translate(4 282)">
<title>Call graph</title>
<polygon fill="white" stroke="none" points="-4,4 -4,-282 617.455,-282 617.455,4 -4,4"/>
<text text-anchor="middle" x="306.728" y="-7.8" font-family="Times,serif" font-size="14.00">Call graph</text>
<!-- Node0x4332aa0 -->
<g id="node1" class="node"><title>Node0x4332aa0</title>
<polygon fill="none" stroke="black" points="263.955,-241.5 263.955,-277.5 353.955,-277.5 353.955,-241.5 263.955,-241.5"/>
<text text-anchor="middle" x="308.955" y="-255.8" font-family="Times,serif" font-size="14.00">external node</text>
</g>
<!-- Node0x4332b40 -->
<g id="node2" class="node"><title>Node0x4332b40</title>
<polygon fill="none" stroke="black" points="15.9554,-168.5 15.9554,-204.5 91.9554,-204.5 91.9554,-168.5 15.9554,-168.5"/>
<text text-anchor="middle" x="53.9554" y="-182.8" font-family="Times,serif" font-size="14.00">_apex_exit</text>
</g>
<!-- Node0x4332aa0&#45;&gt;Node0x4332b40 -->
<g id="edge1" class="edge"><title>Node0x4332aa0&#45;&gt;Node0x4332b40</title>
<path fill="none" stroke="black" d="M263.562,-247.462C222.261,-237.2 159.721,-221.112 105.955,-205 104.698,-204.623 103.425,-204.236 102.142,-203.841"/>
<polygon fill="black" stroke="black" points="102.79,-200.375 92.1998,-200.694 100.677,-207.049 102.79,-200.375"/>
</g>
<!-- Node0x4332c80 -->
<g id="node3" class="node"><title>Node0x4332c80</title>
<polygon fill="none" stroke="black" points="504.455,-168.5 504.455,-204.5 613.455,-204.5 613.455,-168.5 504.455,-168.5"/>
<text text-anchor="middle" x="558.955" y="-182.8" font-family="Times,serif" font-size="14.00">llvm.dbg.declare</text>
</g>
<!-- Node0x4332aa0&#45;&gt;Node0x4332c80 -->
<g id="edge2" class="edge"><title>Node0x4332aa0&#45;&gt;Node0x4332c80</title>
<path fill="none" stroke="black" d="M354.229,-245.642C393.473,-234.497 450.712,-218.241 494.696,-205.75"/>
<polygon fill="black" stroke="black" points="495.771,-209.083 504.435,-202.984 493.859,-202.349 495.771,-209.083"/>
</g>
<!-- Node0x4332be0 -->
<g id="node4" class="node"><title>Node0x4332be0</title>
<polygon fill="none" stroke="black" points="26.9554,-95.5 26.9554,-131.5 80.9554,-131.5 80.9554,-95.5 26.9554,-95.5"/>
<text text-anchor="middle" x="53.9554" y="-109.8" font-family="Times,serif" font-size="14.00">exit</text>
</g>
<!-- Node0x4332aa0&#45;&gt;Node0x4332be0 -->
<g id="edge3" class="edge"><title>Node0x4332aa0&#45;&gt;Node0x4332be0</title>
<path fill="none" stroke="black" d="M263.765,-257.324C187.697,-254.287 39.1984,-243.457 6.9554,-205 -9.71383,-185.118 8.10328,-158.342 26.3859,-139.081"/>
<polygon fill="black" stroke="black" points="29.0246,-141.391 33.6116,-131.841 24.07,-136.447 29.0246,-141.391"/>
</g>
<!-- Node0x4332dd0 -->
<g id="node5" class="node"><title>Node0x4332dd0</title>
<polygon fill="none" stroke="black" points="148.455,-168.5 148.455,-204.5 261.455,-204.5 261.455,-168.5 148.455,-168.5"/>
<text text-anchor="middle" x="204.955" y="-182.8" font-family="Times,serif" font-size="14.00">_apex_extract_int</text>
</g>
<!-- Node0x4332aa0&#45;&gt;Node0x4332dd0 -->
<g id="edge4" class="edge"><title>Node0x4332aa0&#45;&gt;Node0x4332dd0</title>
<path fill="none" stroke="black" d="M284.045,-241.494C270.381,-232.166 253.256,-220.474 238.438,-210.358"/>
<polygon fill="black" stroke="black" points="240.256,-207.361 230.023,-204.614 236.309,-213.143 240.256,-207.361"/>
</g>
<!-- Node0x4332e40 -->
<g id="node6" class="node"><title>Node0x4332e40</title>
<polygon fill="none" stroke="black" points="158.955,-95.5 158.955,-131.5 212.955,-131.5 212.955,-95.5 158.955,-95.5"/>
<text text-anchor="middle" x="185.955" y="-109.8" font-family="Times,serif" font-size="14.00">printf</text>
</g>
<!-- Node0x4332aa0&#45;&gt;Node0x4332e40 -->
<g id="edge5" class="edge"><title>Node0x4332aa0&#45;&gt;Node0x4332e40</title>
<path fill="none" stroke="black" d="M263.698,-258.145C223.661,-255.124 167.324,-243.668 138.955,-205 123.768,-184.299 140.87,-158.01 158.552,-139.107"/>
<polygon fill="black" stroke="black" points="161.28,-141.325 165.811,-131.748 156.296,-136.409 161.28,-141.325"/>
</g>
<!-- Node0x4332fb0 -->
<g id="node7" class="node"><title>Node0x4332fb0</title>
<polygon fill="none" stroke="black" points="355.955,-168.5 355.955,-204.5 409.955,-204.5 409.955,-168.5 355.955,-168.5"/>
<text text-anchor="middle" x="382.955" y="-182.8" font-family="Times,serif" font-size="14.00">main</text>
</g>
<!-- Node0x4332aa0&#45;&gt;Node0x4332fb0 -->
<g id="edge6" class="edge"><title>Node0x4332aa0&#45;&gt;Node0x4332fb0</title>
<path fill="none" stroke="black" d="M326.869,-241.313C336.14,-232.417 347.613,-221.409 357.762,-211.672"/>
<polygon fill="black" stroke="black" points="360.414,-213.978 365.207,-204.529 355.568,-208.927 360.414,-213.978"/>
</g>
<!-- Node0x4333020 -->
<g id="node8" class="node"><title>Node0x4333020</title>
<polygon fill="none" stroke="black" points="302.955,-95.5 302.955,-131.5 356.955,-131.5 356.955,-95.5 302.955,-95.5"/>
<text text-anchor="middle" x="329.955" y="-109.8" font-family="Times,serif" font-size="14.00">strlen</text>
</g>
<!-- Node0x4332aa0&#45;&gt;Node0x4333020 -->
<g id="edge7" class="edge"><title>Node0x4332aa0&#45;&gt;Node0x4333020</title>
<path fill="none" stroke="black" d="M311.447,-241.416C315.046,-216.733 321.738,-170.851 326.012,-141.541"/>
<polygon fill="black" stroke="black" points="329.487,-141.962 327.467,-131.562 322.561,-140.952 329.487,-141.962"/>
</g>
<!-- Node0x4333050 -->
<g id="node9" class="node"><title>Node0x4333050</title>
<polygon fill="none" stroke="black" points="230.955,-95.5 230.955,-131.5 284.955,-131.5 284.955,-95.5 230.955,-95.5"/>
<text text-anchor="middle" x="257.955" y="-109.8" font-family="Times,serif" font-size="14.00">malloc</text>
</g>
<!-- Node0x4332aa0&#45;&gt;Node0x4333050 -->
<g id="edge8" class="edge"><title>Node0x4332aa0&#45;&gt;Node0x4333050</title>
<path fill="none" stroke="black" d="M302.905,-241.416C294.125,-216.625 277.77,-170.448 267.396,-141.156"/>
<polygon fill="black" stroke="black" points="270.636,-139.82 263.998,-131.562 264.038,-142.157 270.636,-139.82"/>
</g>
<!-- Node0x4333190 -->
<g id="node10" class="node"><title>Node0x4333190</title>
<polygon fill="none" stroke="black" points="374.955,-95.5 374.955,-131.5 428.955,-131.5 428.955,-95.5 374.955,-95.5"/>
<text text-anchor="middle" x="401.955" y="-109.8" font-family="Times,serif" font-size="14.00">strcat</text>
</g>
<!-- Node0x4332aa0&#45;&gt;Node0x4333190 -->
<g id="edge9" class="edge"><title>Node0x4332aa0&#45;&gt;Node0x4333190</title>
<path fill="none" stroke="black" d="M353.984,-248.763C377.681,-241.104 404.707,-227.774 418.955,-205 431.069,-185.638 424.368,-159.702 416.079,-140.559"/>
<polygon fill="black" stroke="black" points="419.245,-139.066 411.825,-131.503 412.909,-142.042 419.245,-139.066"/>
</g>
<!-- Node0x4333100 -->
<g id="node11" class="node"><title>Node0x4333100</title>
<polygon fill="none" stroke="black" points="446.955,-95.5 446.955,-131.5 500.955,-131.5 500.955,-95.5 446.955,-95.5"/>
<text text-anchor="middle" x="473.955" y="-109.8" font-family="Times,serif" font-size="14.00">fwrite</text>
</g>
<!-- Node0x4332aa0&#45;&gt;Node0x4333100 -->
<g id="edge10" class="edge"><title>Node0x4332aa0&#45;&gt;Node0x4333100</title>
<path fill="none" stroke="black" d="M354.076,-248.641C380.82,-240.767 413.722,-227.26 435.955,-205 453.207,-187.728 463.05,-161.448 468.374,-141.649"/>
<polygon fill="black" stroke="black" points="471.833,-142.239 470.824,-131.693 465.036,-140.567 471.833,-142.239"/>
</g>
<!-- Node0x4332b40&#45;&gt;Node0x4332be0 -->
<g id="edge13" class="edge"><title>Node0x4332b40&#45;&gt;Node0x4332be0</title>
<path fill="none" stroke="black" d="M53.9554,-168.313C53.9554,-160.289 53.9554,-150.547 53.9554,-141.569"/>
<polygon fill="black" stroke="black" points="57.4555,-141.529 53.9554,-131.529 50.4555,-141.529 57.4555,-141.529"/>
</g>
<!-- Node0x4332ad0 -->
<g id="node12" class="node"><title>Node0x4332ad0</title>
<ellipse fill="none" stroke="black" cx="293.955" cy="-41" rx="68.7879" ry="18"/>
<text text-anchor="middle" x="293.955" y="-37.3" font-family="Times,serif" font-size="14.00">Node0x4332ad0</text>
</g>
<!-- Node0x4332be0&#45;&gt;Node0x4332ad0 -->
<g id="edge14" class="edge"><title>Node0x4332be0&#45;&gt;Node0x4332ad0</title>
<path fill="none" stroke="black" d="M81.0199,-104.55C119.441,-93.2637 190.611,-72.3574 240.041,-57.8372"/>
<polygon fill="black" stroke="black" points="241.322,-61.109 249.93,-54.9324 239.349,-54.3928 241.322,-61.109"/>
</g>
<!-- Node0x4332dd0&#45;&gt;Node0x4332e40 -->
<g id="edge15" class="edge"><title>Node0x4332dd0&#45;&gt;Node0x4332e40</title>
<path fill="none" stroke="black" d="M200.356,-168.313C198.186,-160.202 195.545,-150.336 193.121,-141.277"/>
<polygon fill="black" stroke="black" points="196.479,-140.284 190.512,-131.529 189.717,-142.094 196.479,-140.284"/>
</g>
<!-- Node0x4332e40&#45;&gt;Node0x4332ad0 -->
<g id="edge12" class="edge"><title>Node0x4332e40&#45;&gt;Node0x4332ad0</title>
<path fill="none" stroke="black" d="M212.099,-95.4339C226.848,-85.8064 245.414,-73.6869 261.134,-63.4249"/>
<polygon fill="black" stroke="black" points="263.072,-66.3396 269.533,-57.9425 259.246,-60.4779 263.072,-66.3396"/>
</g>
<!-- Node0x4332fb0&#45;&gt;Node0x4333020 -->
<g id="edge16" class="edge"><title>Node0x4332fb0&#45;&gt;Node0x4333020</title>
<path fill="none" stroke="black" d="M358.369,-168.313C350.368,-159.941 342.289,-149.697 336.24,-140.403"/>
<polygon fill="black" stroke="black" points="339.074,-138.322 330.944,-131.529 333.063,-141.91 339.074,-138.322"/>
</g>
<!-- Node0x4332fb0&#45;&gt;Node0x4333020 -->
<g id="edge17" class="edge"><title>Node0x4332fb0&#45;&gt;Node0x4333020</title>
<path fill="none" stroke="black" d="M370.126,-168.313C363.746,-159.766 355.91,-149.269 348.858,-139.823"/>
<polygon fill="black" stroke="black" points="351.454,-137.449 342.667,-131.529 345.844,-141.636 351.454,-137.449"/>
</g>
<!-- Node0x4332fb0&#45;&gt;Node0x4333020 -->
<g id="edge23" class="edge"><title>Node0x4332fb0&#45;&gt;Node0x4333020</title>
<path fill="none" stroke="black" d="M381.882,-168.313C377.15,-159.505 369.41,-148.625 361.115,-138.958"/>
<polygon fill="black" stroke="black" points="363.696,-136.594 354.39,-131.529 358.506,-141.292 363.696,-136.594"/>
</g>
<!-- Node0x4332fb0&#45;&gt;Node0x4333050 -->
<g id="edge18" class="edge"><title>Node0x4332fb0&#45;&gt;Node0x4333050</title>
<path fill="none" stroke="black" d="M355.832,-170.094C337.65,-159.767 313.512,-146.056 293.757,-134.835"/>
<polygon fill="black" stroke="black" points="295.449,-131.771 285.026,-129.876 291.992,-137.858 295.449,-131.771"/>
</g>
<!-- Node0x4332fb0&#45;&gt;Node0x4333190 -->
<g id="edge19" class="edge"><title>Node0x4332fb0&#45;&gt;Node0x4333190</title>
<path fill="none" stroke="black" d="M369.92,-168.313C369.537,-160.028 371.583,-149.91 375.328,-140.693"/>
<polygon fill="black" stroke="black" points="378.561,-142.049 379.814,-131.529 372.273,-138.972 378.561,-142.049"/>
</g>
<!-- Node0x4332fb0&#45;&gt;Node0x4333190 -->
<g id="edge20" class="edge"><title>Node0x4332fb0&#45;&gt;Node0x4333190</title>
<path fill="none" stroke="black" d="M381.677,-168.313C382.998,-160.202 385.41,-150.336 388.224,-141.277"/>
<polygon fill="black" stroke="black" points="391.633,-142.123 391.537,-131.529 385.005,-139.871 391.633,-142.123"/>
</g>
<!-- Node0x4332fb0&#45;&gt;Node0x4333190 -->
<g id="edge21" class="edge"><title>Node0x4332fb0&#45;&gt;Node0x4333190</title>
<path fill="none" stroke="black" d="M393.433,-168.313C396.42,-160.289 399.26,-150.547 401.289,-141.569"/>
<polygon fill="black" stroke="black" points="404.768,-142.016 403.26,-131.529 397.9,-140.668 404.768,-142.016"/>
</g>
<!-- Node0x4332fb0&#45;&gt;Node0x4333190 -->
<g id="edge22" class="edge"><title>Node0x4332fb0&#45;&gt;Node0x4333190</title>
<path fill="none" stroke="black" d="M405.189,-168.313C409.855,-160.289 413.161,-150.547 414.445,-141.569"/>
<polygon fill="black" stroke="black" points="417.943,-141.702 414.983,-131.529 410.953,-141.327 417.943,-141.702"/>
</g>
<!-- Node0x4332fb0&#45;&gt;Node0x4333100 -->
<g id="edge24" class="edge"><title>Node0x4332fb0&#45;&gt;Node0x4333100</title>
<path fill="none" stroke="black" d="M404.984,-168.313C416.721,-159.156 431.326,-147.76 444.072,-137.816"/>
<polygon fill="black" stroke="black" points="446.398,-140.44 452.13,-131.529 442.092,-134.921 446.398,-140.44"/>
</g>
<!-- Node0x4333020&#45;&gt;Node0x4332ad0 -->
<g id="edge25" class="edge"><title>Node0x4333020&#45;&gt;Node0x4332ad0</title>
<path fill="none" stroke="black" d="M321.241,-95.4339C317.04,-87.2072 311.91,-77.161 307.237,-68.0089"/>
<polygon fill="black" stroke="black" points="310.255,-66.2232 302.59,-58.9089 304.02,-69.4067 310.255,-66.2232"/>
</g>
<!-- Node0x4333050&#45;&gt;Node0x4332ad0 -->
<g id="edge26" class="edge"><title>Node0x4333050&#45;&gt;Node0x4332ad0</title>
<path fill="none" stroke="black" d="M266.67,-95.4339C270.871,-87.2072 276.001,-77.161 280.674,-68.0089"/>
<polygon fill="black" stroke="black" points="283.89,-69.4067 285.321,-58.9089 277.656,-66.2232 283.89,-69.4067"/>
</g>
<!-- Node0x4333190&#45;&gt;Node0x4332ad0 -->
<g id="edge11" class="edge"><title>Node0x4333190&#45;&gt;Node0x4332ad0</title>
<path fill="none" stroke="black" d="M375.812,-95.4339C361.063,-85.8064 342.497,-73.6869 326.776,-63.4249"/>
<polygon fill="black" stroke="black" points="328.665,-60.4779 318.378,-57.9425 324.839,-66.3396 328.665,-60.4779"/>
</g>
<!-- Node0x4333100&#45;&gt;Node0x4332ad0 -->
<g id="edge27" class="edge"><title>Node0x4333100&#45;&gt;Node0x4332ad0</title>
<path fill="none" stroke="black" d="M446.568,-98.8379C443.678,-97.5011 440.769,-96.198 437.955,-95 407.151,-81.8826 371.885,-68.8707 343.963,-59.0222"/>
<polygon fill="black" stroke="black" points="345.008,-55.6795 334.413,-55.6757 342.693,-62.2857 345.008,-55.6795"/>
</g>
</g>
</svg>
