<?xml version="1.0" encoding="UTF-8" standalone="no"?>
<!DOCTYPE svg PUBLIC "-//W3C//DTD SVG 1.1//EN"
 "http://www.w3.org/Graphics/SVG/1.1/DTD/svg11.dtd">
<!-- Generated by graphviz version 2.38.0 (20140413.2041)
 -->
<!-- Title: Call graph Pages: 1 -->
<svg width="598pt" height="359pt"
 viewBox="0.00 0.00 597.88 359.00" xmlns="http://www.w3.org/2000/svg" xmlns:xlink="http://www.w3.org/1999/xlink">
<g id="graph0" class="graph" transform="scale(1 1) rotate(0) translate(4 355)">
<title>Call graph</title>
<polygon fill="white" stroke="none" points="-4,4 -4,-355 593.875,-355 593.875,4 -4,4"/>
<text text-anchor="middle" x="294.938" y="-7.8" font-family="Times,serif" font-size="14.00">Call graph</text>
<!-- Node0x3b051b0 -->
<g id="node1" class="node"><title>Node0x3b051b0</title>
<polygon fill="none" stroke="black" points="248.375,-314.5 248.375,-350.5 338.375,-350.5 338.375,-314.5 248.375,-314.5"/>
<text text-anchor="middle" x="293.375" y="-328.8" font-family="Times,serif" font-size="14.00">external node</text>
</g>
<!-- Node0x3b05250 -->
<g id="node2" class="node"><title>Node0x3b05250</title>
<polygon fill="none" stroke="black" points="13.3751,-168.5 13.3751,-204.5 89.3751,-204.5 89.3751,-168.5 13.3751,-168.5"/>
<text text-anchor="middle" x="51.3751" y="-182.8" font-family="Times,serif" font-size="14.00">_apex_exit</text>
</g>
<!-- Node0x3b051b0&#45;&gt;Node0x3b05250 -->
<g id="edge1" class="edge"><title>Node0x3b051b0&#45;&gt;Node0x3b05250</title>
<path fill="none" stroke="black" d="M248.354,-328.428C206.875,-323.535 145.546,-310.856 103.375,-278 82.4645,-261.708 68.4721,-234.485 60.3194,-214.143"/>
<polygon fill="black" stroke="black" points="63.4884,-212.627 56.6821,-204.507 56.9395,-215.099 63.4884,-212.627"/>
</g>
<!-- Node0x3b05390 -->
<g id="node3" class="node"><title>Node0x3b05390</title>
<polygon fill="none" stroke="black" points="480.875,-241.5 480.875,-277.5 589.875,-277.5 589.875,-241.5 480.875,-241.5"/>
<text text-anchor="middle" x="535.375" y="-255.8" font-family="Times,serif" font-size="14.00">llvm.dbg.declare</text>
</g>
<!-- Node0x3b051b0&#45;&gt;Node0x3b05390 -->
<g id="edge2" class="edge"><title>Node0x3b051b0&#45;&gt;Node0x3b05390</title>
<path fill="none" stroke="black" d="M338.61,-318.229C375.845,-307.304 429.097,-291.681 470.815,-279.441"/>
<polygon fill="black" stroke="black" points="472.001,-282.741 480.612,-276.567 470.031,-276.024 472.001,-282.741"/>
</g>
<!-- Node0x3b052f0 -->
<g id="node4" class="node"><title>Node0x3b052f0</title>
<polygon fill="none" stroke="black" points="24.3751,-95.5 24.3751,-131.5 78.3751,-131.5 78.3751,-95.5 24.3751,-95.5"/>
<text text-anchor="middle" x="51.3751" y="-109.8" font-family="Times,serif" font-size="14.00">exit</text>
</g>
<!-- Node0x3b051b0&#45;&gt;Node0x3b052f0 -->
<g id="edge3" class="edge"><title>Node0x3b051b0&#45;&gt;Node0x3b052f0</title>
<path fill="none" stroke="black" d="M248.314,-328.689C200.828,-323.989 125.311,-311.444 69.3751,-278 32.0894,-255.707 19.8308,-245.6 4.37508,-205 -1.47548,-189.632 -1.42412,-183.388 4.37508,-168 8.44757,-157.194 15.8053,-147.151 23.5087,-138.753"/>
<polygon fill="black" stroke="black" points="26.0917,-141.118 30.5961,-131.528 21.0946,-136.216 26.0917,-141.118"/>
</g>
<!-- Node0x3b054e0 -->
<g id="node5" class="node"><title>Node0x3b054e0</title>
<polygon fill="none" stroke="black" points="145.875,-168.5 145.875,-204.5 258.875,-204.5 258.875,-168.5 145.875,-168.5"/>
<text text-anchor="middle" x="202.375" y="-182.8" font-family="Times,serif" font-size="14.00">_apex_extract_int</text>
</g>
<!-- Node0x3b051b0&#45;&gt;Node0x3b054e0 -->
<g id="edge4" class="edge"><title>Node0x3b051b0&#45;&gt;Node0x3b054e0</title>
<path fill="none" stroke="black" d="M282.579,-314.416C266.775,-289.408 237.22,-242.64 218.738,-213.392"/>
<polygon fill="black" stroke="black" points="221.458,-211.146 213.157,-204.562 215.541,-214.885 221.458,-211.146"/>
</g>
<!-- Node0x3b05550 -->
<g id="node6" class="node"><title>Node0x3b05550</title>
<polygon fill="none" stroke="black" points="175.375,-95.5 175.375,-131.5 229.375,-131.5 229.375,-95.5 175.375,-95.5"/>
<text text-anchor="middle" x="202.375" y="-109.8" font-family="Times,serif" font-size="14.00">printf</text>
</g>
<!-- Node0x3b051b0&#45;&gt;Node0x3b05550 -->
<g id="edge5" class="edge"><title>Node0x3b051b0&#45;&gt;Node0x3b05550</title>
<path fill="none" stroke="black" d="M257.067,-314.478C218.967,-294.363 161.228,-256.941 136.375,-205 129.277,-190.166 129.299,-182.844 136.375,-168 142.861,-154.393 154.687,-143.124 166.555,-134.495"/>
<polygon fill="black" stroke="black" points="168.815,-137.191 175.128,-128.682 164.887,-131.397 168.815,-137.191"/>
</g>
<!-- Node0x3b056c0 -->
<g id="node7" class="node"><title>Node0x3b056c0</title>
<polygon fill="none" stroke="black" points="294.375,-241.5 294.375,-277.5 348.375,-277.5 348.375,-241.5 294.375,-241.5"/>
<text text-anchor="middle" x="321.375" y="-255.8" font-family="Times,serif" font-size="14.00">main</text>
</g>
<!-- Node0x3b051b0&#45;&gt;Node0x3b056c0 -->
<g id="edge6" class="edge"><title>Node0x3b051b0&#45;&gt;Node0x3b056c0</title>
<path fill="none" stroke="black" d="M300.153,-314.313C303.386,-306.115 307.327,-296.123 310.93,-286.985"/>
<polygon fill="black" stroke="black" points="314.247,-288.116 314.659,-277.529 307.735,-285.548 314.247,-288.116"/>
</g>
<!-- Node0x3b05730 -->
<g id="node8" class="node"><title>Node0x3b05730</title>
<polygon fill="none" stroke="black" points="277.375,-168.5 277.375,-204.5 331.375,-204.5 331.375,-168.5 277.375,-168.5"/>
<text text-anchor="middle" x="304.375" y="-182.8" font-family="Times,serif" font-size="14.00">strlen</text>
</g>
<!-- Node0x3b051b0&#45;&gt;Node0x3b05730 -->
<g id="edge7" class="edge"><title>Node0x3b051b0&#45;&gt;Node0x3b05730</title>
<path fill="none" stroke="black" d="M289.246,-314.378C285.447,-296.098 281.01,-266.337 285.375,-241 286.898,-232.161 289.739,-222.846 292.769,-214.51"/>
<polygon fill="black" stroke="black" points="296.133,-215.514 296.482,-204.925 289.606,-212.985 296.133,-215.514"/>
</g>
<!-- Node0x3b05760 -->
<g id="node9" class="node"><title>Node0x3b05760</title>
<polygon fill="none" stroke="black" points="421.375,-168.5 421.375,-204.5 475.375,-204.5 475.375,-168.5 421.375,-168.5"/>
<text text-anchor="middle" x="448.375" y="-182.8" font-family="Times,serif" font-size="14.00">malloc</text>
</g>
<!-- Node0x3b051b0&#45;&gt;Node0x3b05760 -->
<g id="edge8" class="edge"><title>Node0x3b051b0&#45;&gt;Node0x3b05760</title>
<path fill="none" stroke="black" d="M325.885,-314.279C342.26,-304.77 361.874,-292.05 377.375,-278 398.803,-258.578 418.709,-232.168 431.957,-212.892"/>
<polygon fill="black" stroke="black" points="434.868,-214.836 437.557,-204.588 429.064,-210.922 434.868,-214.836"/>
</g>
<!-- Node0x3b05860 -->
<g id="node10" class="node"><title>Node0x3b05860</title>
<polygon fill="none" stroke="black" points="349.375,-168.5 349.375,-204.5 403.375,-204.5 403.375,-168.5 349.375,-168.5"/>
<text text-anchor="middle" x="376.375" y="-182.8" font-family="Times,serif" font-size="14.00">strcat</text>
</g>
<!-- Node0x3b051b0&#45;&gt;Node0x3b05860 -->
<g id="edge9" class="edge"><title>Node0x3b051b0&#45;&gt;Node0x3b05860</title>
<path fill="none" stroke="black" d="M321.449,-314.394C334.294,-305.162 348.578,-292.651 357.375,-278 368.897,-258.811 373.504,-233.682 375.311,-214.774"/>
<polygon fill="black" stroke="black" points="378.807,-214.954 376.068,-204.72 371.827,-214.429 378.807,-214.954"/>
</g>
<!-- Node0x3b2ce80 -->
<g id="node11" class="node"><title>Node0x3b2ce80</title>
<polygon fill="none" stroke="black" points="493.375,-168.5 493.375,-204.5 547.375,-204.5 547.375,-168.5 493.375,-168.5"/>
<text text-anchor="middle" x="520.375" y="-182.8" font-family="Times,serif" font-size="14.00">fwrite</text>
</g>
<!-- Node0x3b051b0&#45;&gt;Node0x3b2ce80 -->
<g id="edge10" class="edge"><title>Node0x3b051b0&#45;&gt;Node0x3b2ce80</title>
<path fill="none" stroke="black" d="M335.77,-314.461C357.783,-304.912 384.735,-292.101 407.375,-278 439.107,-258.237 472.11,-230.889 494.197,-211.442"/>
<polygon fill="black" stroke="black" points="496.672,-213.925 501.817,-204.663 492.019,-208.694 496.672,-213.925"/>
</g>
<!-- Node0x3b05250&#45;&gt;Node0x3b052f0 -->
<g id="edge13" class="edge"><title>Node0x3b05250&#45;&gt;Node0x3b052f0</title>
<path fill="none" stroke="black" d="M51.3751,-168.313C51.3751,-160.289 51.3751,-150.547 51.3751,-141.569"/>
<polygon fill="black" stroke="black" points="54.8752,-141.529 51.3751,-131.529 47.8752,-141.529 54.8752,-141.529"/>
</g>
<!-- Node0x3b051e0 -->
<g id="node12" class="node"><title>Node0x3b051e0</title>
<ellipse fill="none" stroke="black" cx="339.375" cy="-41" rx="68.7879" ry="18"/>
<text text-anchor="middle" x="339.375" y="-37.3" font-family="Times,serif" font-size="14.00">Node0x3b051e0</text>
</g>
<!-- Node0x3b052f0&#45;&gt;Node0x3b051e0 -->
<g id="edge14" class="edge"><title>Node0x3b052f0&#45;&gt;Node0x3b051e0</title>
<path fill="none" stroke="black" d="M78.4694,-105.868C124.563,-94.5843 219.232,-71.4101 280.963,-56.2987"/>
<polygon fill="black" stroke="black" points="282.072,-59.6308 290.953,-53.8534 280.407,-52.8315 282.072,-59.6308"/>
</g>
<!-- Node0x3b054e0&#45;&gt;Node0x3b05550 -->
<g id="edge15" class="edge"><title>Node0x3b054e0&#45;&gt;Node0x3b05550</title>
<path fill="none" stroke="black" d="M202.375,-168.313C202.375,-160.289 202.375,-150.547 202.375,-141.569"/>
<polygon fill="black" stroke="black" points="205.875,-141.529 202.375,-131.529 198.875,-141.529 205.875,-141.529"/>
</g>
<!-- Node0x3b05550&#45;&gt;Node0x3b051e0 -->
<g id="edge12" class="edge"><title>Node0x3b05550&#45;&gt;Node0x3b051e0</title>
<path fill="none" stroke="black" d="M229.442,-98.5715C249.729,-88.1318 277.783,-73.6954 300.472,-62.0193"/>
<polygon fill="black" stroke="black" points="302.221,-65.0559 309.511,-57.3681 299.018,-58.8317 302.221,-65.0559"/>
</g>
<!-- Node0x3b056c0&#45;&gt;Node0x3b05250 -->
<g id="edge18" class="edge"><title>Node0x3b056c0&#45;&gt;Node0x3b05250</title>
<path fill="none" stroke="black" d="M294.25,-251.367C248.709,-239.392 156.299,-215.091 99.5174,-200.16"/>
<polygon fill="black" stroke="black" points="100.254,-196.734 89.6928,-197.576 98.4739,-203.504 100.254,-196.734"/>
</g>
<!-- Node0x3b056c0&#45;&gt;Node0x3b054e0 -->
<g id="edge17" class="edge"><title>Node0x3b056c0&#45;&gt;Node0x3b054e0</title>
<path fill="none" stroke="black" d="M294.372,-242.389C278.255,-232.773 257.549,-220.419 239.863,-209.867"/>
<polygon fill="black" stroke="black" points="241.312,-206.655 230.931,-204.537 237.725,-212.667 241.312,-206.655"/>
</g>
<!-- Node0x3b056c0&#45;&gt;Node0x3b05730 -->
<g id="edge16" class="edge"><title>Node0x3b056c0&#45;&gt;Node0x3b05730</title>
<path fill="none" stroke="black" d="M305.503,-241.313C301.903,-233.289 299.104,-223.547 297.701,-214.569"/>
<polygon fill="black" stroke="black" points="301.176,-214.145 296.729,-204.529 294.209,-214.819 301.176,-214.145"/>
</g>
<!-- Node0x3b056c0&#45;&gt;Node0x3b05730 -->
<g id="edge19" class="edge"><title>Node0x3b056c0&#45;&gt;Node0x3b05730</title>
<path fill="none" stroke="black" d="M317.26,-241.313C315.318,-233.202 312.955,-223.336 310.786,-214.277"/>
<polygon fill="black" stroke="black" points="314.185,-213.439 308.452,-204.529 307.377,-215.069 314.185,-213.439"/>
</g>
<!-- Node0x3b056c0&#45;&gt;Node0x3b05730 -->
<g id="edge25" class="edge"><title>Node0x3b056c0&#45;&gt;Node0x3b05730</title>
<path fill="none" stroke="black" d="M329.016,-241.313C328.769,-233.115 326.826,-223.123 323.822,-213.985"/>
<polygon fill="black" stroke="black" points="327.039,-212.6 320.176,-204.529 320.508,-215.118 327.039,-212.6"/>
</g>
<!-- Node0x3b056c0&#45;&gt;Node0x3b05760 -->
<g id="edge20" class="edge"><title>Node0x3b056c0&#45;&gt;Node0x3b05760</title>
<path fill="none" stroke="black" d="M348.62,-243.269C367.202,-232.88 392.013,-219.009 412.242,-207.7"/>
<polygon fill="black" stroke="black" points="414.155,-210.641 421.175,-202.706 410.739,-204.531 414.155,-210.641"/>
</g>
<!-- Node0x3b056c0&#45;&gt;Node0x3b05860 -->
<g id="edge21" class="edge"><title>Node0x3b056c0&#45;&gt;Node0x3b05860</title>
<path fill="none" stroke="black" d="M317.054,-241.313C321.633,-231.376 331.043,-218.803 341.632,-208.309"/>
<polygon fill="black" stroke="black" points="344.116,-210.78 349.107,-201.435 339.377,-205.628 344.116,-210.78"/>
</g>
<!-- Node0x3b056c0&#45;&gt;Node0x3b05860 -->
<g id="edge22" class="edge"><title>Node0x3b056c0&#45;&gt;Node0x3b05860</title>
<path fill="none" stroke="black" d="M328.811,-241.313C334.654,-232.592 342.787,-221.84 350.739,-212.246"/>
<polygon fill="black" stroke="black" points="353.495,-214.408 357.322,-204.529 348.169,-209.865 353.495,-214.408"/>
</g>
<!-- Node0x3b056c0&#45;&gt;Node0x3b05860 -->
<g id="edge23" class="edge"><title>Node0x3b056c0&#45;&gt;Node0x3b05860</title>
<path fill="none" stroke="black" d="M340.567,-241.313C348.082,-232.766 356.42,-222.269 363.256,-212.823"/>
<polygon fill="black" stroke="black" points="366.192,-214.732 369.045,-204.529 360.452,-210.726 366.192,-214.732"/>
</g>
<!-- Node0x3b056c0&#45;&gt;Node0x3b05860 -->
<g id="edge24" class="edge"><title>Node0x3b056c0&#45;&gt;Node0x3b05860</title>
<path fill="none" stroke="black" d="M348.753,-244.473C359.187,-235.596 369.305,-223.849 375.933,-213.329"/>
<polygon fill="black" stroke="black" points="379.034,-214.953 380.78,-204.503 372.899,-211.584 379.034,-214.953"/>
</g>
<!-- Node0x3b056c0&#45;&gt;Node0x3b2ce80 -->
<g id="edge26" class="edge"><title>Node0x3b056c0&#45;&gt;Node0x3b2ce80</title>
<path fill="none" stroke="black" d="M348.601,-250.794C379.445,-241.8 431.283,-225.887 483.605,-205.068"/>
<polygon fill="black" stroke="black" points="485.066,-208.253 493.031,-201.265 482.447,-201.761 485.066,-208.253"/>
</g>
<!-- Node0x3b05730&#45;&gt;Node0x3b051e0 -->
<g id="edge27" class="edge"><title>Node0x3b05730&#45;&gt;Node0x3b051e0</title>
<path fill="none" stroke="black" d="M308.527,-168.475C314.527,-143.878 325.679,-98.1551 332.803,-68.9467"/>
<polygon fill="black" stroke="black" points="336.259,-69.5473 335.228,-59.0027 329.458,-67.8885 336.259,-69.5473"/>
</g>
<!-- Node0x3b05760&#45;&gt;Node0x3b051e0 -->
<g id="edge28" class="edge"><title>Node0x3b05760&#45;&gt;Node0x3b051e0</title>
<path fill="none" stroke="black" d="M435.443,-168.475C416.35,-143.339 380.498,-96.1395 358.402,-67.0494"/>
<polygon fill="black" stroke="black" points="361.126,-64.8489 352.29,-59.0027 355.552,-69.083 361.126,-64.8489"/>
</g>
<!-- Node0x3b05860&#45;&gt;Node0x3b051e0 -->
<g id="edge11" class="edge"><title>Node0x3b05860&#45;&gt;Node0x3b051e0</title>
<path fill="none" stroke="black" d="M371.985,-168.475C365.643,-143.878 353.854,-98.1551 346.323,-68.9467"/>
<polygon fill="black" stroke="black" points="349.645,-67.8121 343.759,-59.0027 342.867,-69.5599 349.645,-67.8121"/>
</g>
<!-- Node0x3b2ce80&#45;&gt;Node0x3b051e0 -->
<g id="edge29" class="edge"><title>Node0x3b2ce80&#45;&gt;Node0x3b051e0</title>
<path fill="none" stroke="black" d="M499.199,-168.403C476.543,-150.143 439.521,-120.398 407.375,-95 394.588,-84.8972 380.378,-73.8014 368.269,-64.3846"/>
<polygon fill="black" stroke="black" points="370.308,-61.5369 360.264,-58.1663 366.014,-67.065 370.308,-61.5369"/>
</g>
</g>
</svg>
