<?xml version="1.0" encoding="UTF-8" standalone="no"?>
<!DOCTYPE svg PUBLIC "-//W3C//DTD SVG 1.1//EN"
 "http://www.w3.org/Graphics/SVG/1.1/DTD/svg11.dtd">
<!-- Generated by graphviz version 2.38.0 (20140413.2041)
 -->
<!-- Title: Call graph Pages: 1 -->
<svg width="468pt" height="359pt"
 viewBox="0.00 0.00 467.74 359.00" xmlns="http://www.w3.org/2000/svg" xmlns:xlink="http://www.w3.org/1999/xlink">
<g id="graph0" class="graph" transform="scale(1 1) rotate(0) translate(4 355)">
<title>Call graph</title>
<polygon fill="white" stroke="none" points="-4,4 -4,-355 463.742,-355 463.742,4 -4,4"/>
<text text-anchor="middle" x="229.871" y="-7.8" font-family="Times,serif" font-size="14.00">Call graph</text>
<!-- Node0x429e4b0 -->
<g id="node1" class="node"><title>Node0x429e4b0</title>
<polygon fill="none" stroke="black" points="167.242,-314.5 167.242,-350.5 257.242,-350.5 257.242,-314.5 167.242,-314.5"/>
<text text-anchor="middle" x="212.242" y="-328.8" font-family="Times,serif" font-size="14.00">external node</text>
</g>
<!-- Node0x429e550 -->
<g id="node2" class="node"><title>Node0x429e550</title>
<polygon fill="none" stroke="black" points="14.2422,-168.5 14.2422,-204.5 90.2422,-204.5 90.2422,-168.5 14.2422,-168.5"/>
<text text-anchor="middle" x="52.2422" y="-182.8" font-family="Times,serif" font-size="14.00">_apex_exit</text>
</g>
<!-- Node0x429e4b0&#45;&gt;Node0x429e550 -->
<g id="edge1" class="edge"><title>Node0x429e4b0&#45;&gt;Node0x429e550</title>
<path fill="none" stroke="black" d="M193.26,-314.416C164.872,-288.867 111.248,-240.605 78.9291,-211.518"/>
<polygon fill="black" stroke="black" points="80.9743,-208.65 71.1999,-204.562 76.2915,-213.853 80.9743,-208.65"/>
</g>
<!-- Node0x429e690 -->
<g id="node3" class="node"><title>Node0x429e690</title>
<polygon fill="none" stroke="black" points="350.742,-241.5 350.742,-277.5 459.742,-277.5 459.742,-241.5 350.742,-241.5"/>
<text text-anchor="middle" x="405.242" y="-255.8" font-family="Times,serif" font-size="14.00">llvm.dbg.declare</text>
</g>
<!-- Node0x429e4b0&#45;&gt;Node0x429e690 -->
<g id="edge2" class="edge"><title>Node0x429e4b0&#45;&gt;Node0x429e690</title>
<path fill="none" stroke="black" d="M257.492,-314.854C284.92,-304.764 320.128,-291.811 349.295,-281.081"/>
<polygon fill="black" stroke="black" points="350.759,-284.273 358.935,-277.535 348.342,-277.703 350.759,-284.273"/>
</g>
<!-- Node0x429e5f0 -->
<g id="node4" class="node"><title>Node0x429e5f0</title>
<polygon fill="none" stroke="black" points="25.2422,-95.5 25.2422,-131.5 79.2422,-131.5 79.2422,-95.5 25.2422,-95.5"/>
<text text-anchor="middle" x="52.2422" y="-109.8" font-family="Times,serif" font-size="14.00">exit</text>
</g>
<!-- Node0x429e4b0&#45;&gt;Node0x429e5f0 -->
<g id="edge3" class="edge"><title>Node0x429e4b0&#45;&gt;Node0x429e5f0</title>
<path fill="none" stroke="black" d="M166.797,-319.04C116.357,-302.433 37.7806,-267.593 5.2422,-205 -2.34261,-190.409 -0.556994,-183.388 5.2422,-168 9.31469,-157.194 16.6724,-147.151 24.3758,-138.753"/>
<polygon fill="black" stroke="black" points="26.9588,-141.118 31.4632,-131.528 21.9618,-136.216 26.9588,-141.118"/>
</g>
<!-- Node0x429e7e0 -->
<g id="node5" class="node"><title>Node0x429e7e0</title>
<polygon fill="none" stroke="black" points="108.742,-168.5 108.742,-204.5 221.742,-204.5 221.742,-168.5 108.742,-168.5"/>
<text text-anchor="middle" x="165.242" y="-182.8" font-family="Times,serif" font-size="14.00">_apex_extract_int</text>
</g>
<!-- Node0x429e4b0&#45;&gt;Node0x429e7e0 -->
<g id="edge4" class="edge"><title>Node0x429e4b0&#45;&gt;Node0x429e7e0</title>
<path fill="none" stroke="black" d="M197.63,-314.349C189.965,-304.385 181.167,-291.218 176.242,-278 168.667,-257.667 166.05,-233.157 165.254,-214.776"/>
<polygon fill="black" stroke="black" points="168.752,-214.637 164.972,-204.739 161.755,-214.834 168.752,-214.637"/>
</g>
<!-- Node0x429e850 -->
<g id="node6" class="node"><title>Node0x429e850</title>
<polygon fill="none" stroke="black" points="138.242,-95.5 138.242,-131.5 192.242,-131.5 192.242,-95.5 138.242,-95.5"/>
<text text-anchor="middle" x="165.242" y="-109.8" font-family="Times,serif" font-size="14.00">printf</text>
</g>
<!-- Node0x429e4b0&#45;&gt;Node0x429e850 -->
<g id="edge5" class="edge"><title>Node0x429e4b0&#45;&gt;Node0x429e850</title>
<path fill="none" stroke="black" d="M234.515,-314.416C271.45,-283.977 338.026,-218.792 303.242,-168 280.774,-135.191 235.042,-122.498 202.382,-117.59"/>
<polygon fill="black" stroke="black" points="202.656,-114.096 192.284,-116.255 201.738,-121.036 202.656,-114.096"/>
</g>
<!-- Node0x429e9c0 -->
<g id="node7" class="node"><title>Node0x429e9c0</title>
<polygon fill="none" stroke="black" points="240.242,-168.5 240.242,-204.5 294.242,-204.5 294.242,-168.5 240.242,-168.5"/>
<text text-anchor="middle" x="267.242" y="-182.8" font-family="Times,serif" font-size="14.00">foo</text>
</g>
<!-- Node0x429e4b0&#45;&gt;Node0x429e9c0 -->
<g id="edge6" class="edge"><title>Node0x429e4b0&#45;&gt;Node0x429e9c0</title>
<path fill="none" stroke="black" d="M226.418,-314.176C233.947,-304.158 242.754,-290.995 248.242,-278 256.805,-257.725 261.646,-233.211 264.295,-214.813"/>
<polygon fill="black" stroke="black" points="267.783,-215.136 265.613,-204.766 260.842,-214.226 267.783,-215.136"/>
</g>
<!-- Node0x429ea30 -->
<g id="node8" class="node"><title>Node0x429ea30</title>
<polygon fill="none" stroke="black" points="185.242,-241.5 185.242,-277.5 239.242,-277.5 239.242,-241.5 185.242,-241.5"/>
<text text-anchor="middle" x="212.242" y="-255.8" font-family="Times,serif" font-size="14.00">main</text>
</g>
<!-- Node0x429e4b0&#45;&gt;Node0x429ea30 -->
<g id="edge7" class="edge"><title>Node0x429e4b0&#45;&gt;Node0x429ea30</title>
<path fill="none" stroke="black" d="M212.242,-314.313C212.242,-306.289 212.242,-296.547 212.242,-287.569"/>
<polygon fill="black" stroke="black" points="215.742,-287.529 212.242,-277.529 208.742,-287.529 215.742,-287.529"/>
</g>
<!-- Node0x429e550&#45;&gt;Node0x429e5f0 -->
<g id="edge10" class="edge"><title>Node0x429e550&#45;&gt;Node0x429e5f0</title>
<path fill="none" stroke="black" d="M52.2422,-168.313C52.2422,-160.289 52.2422,-150.547 52.2422,-141.569"/>
<polygon fill="black" stroke="black" points="55.7423,-141.529 52.2422,-131.529 48.7423,-141.529 55.7423,-141.529"/>
</g>
<!-- Node0x429e4e0 -->
<g id="node9" class="node"><title>Node0x429e4e0</title>
<ellipse fill="none" stroke="black" cx="108.242" cy="-41" rx="68.4888" ry="18"/>
<text text-anchor="middle" x="108.242" y="-37.3" font-family="Times,serif" font-size="14.00">Node0x429e4e0</text>
</g>
<!-- Node0x429e5f0&#45;&gt;Node0x429e4e0 -->
<g id="edge8" class="edge"><title>Node0x429e5f0&#45;&gt;Node0x429e4e0</title>
<path fill="none" stroke="black" d="M65.7982,-95.4339C72.608,-86.8609 80.9875,-76.3117 88.497,-66.8578"/>
<polygon fill="black" stroke="black" points="91.3318,-68.9162 94.811,-58.9089 85.8505,-64.5623 91.3318,-68.9162"/>
</g>
<!-- Node0x429e7e0&#45;&gt;Node0x429e850 -->
<g id="edge9" class="edge"><title>Node0x429e7e0&#45;&gt;Node0x429e850</title>
<path fill="none" stroke="black" d="M165.242,-168.313C165.242,-160.289 165.242,-150.547 165.242,-141.569"/>
<polygon fill="black" stroke="black" points="168.742,-141.529 165.242,-131.529 161.742,-141.529 168.742,-141.529"/>
</g>
<!-- Node0x429e850&#45;&gt;Node0x429e4e0 -->
<g id="edge11" class="edge"><title>Node0x429e850&#45;&gt;Node0x429e4e0</title>
<path fill="none" stroke="black" d="M151.444,-95.4339C144.513,-86.8609 135.984,-76.3117 128.34,-66.8578"/>
<polygon fill="black" stroke="black" points="130.922,-64.4847 121.913,-58.9089 125.479,-68.8858 130.922,-64.4847"/>
</g>
<!-- Node0x429ea30&#45;&gt;Node0x429e550 -->
<g id="edge13" class="edge"><title>Node0x429ea30&#45;&gt;Node0x429e550</title>
<path fill="none" stroke="black" d="M185.1,-246.456C161.71,-236.077 127.409,-220.855 99.5188,-208.479"/>
<polygon fill="black" stroke="black" points="100.891,-205.259 90.3312,-204.402 98.052,-211.657 100.891,-205.259"/>
</g>
<!-- Node0x429ea30&#45;&gt;Node0x429e7e0 -->
<g id="edge12" class="edge"><title>Node0x429ea30&#45;&gt;Node0x429e7e0</title>
<path fill="none" stroke="black" d="M200.865,-241.313C195.265,-232.853 188.4,-222.484 182.197,-213.112"/>
<polygon fill="black" stroke="black" points="184.953,-210.935 176.515,-204.529 179.116,-214.799 184.953,-210.935"/>
</g>
<!-- Node0x429ea30&#45;&gt;Node0x429e9c0 -->
<g id="edge14" class="edge"><title>Node0x429ea30&#45;&gt;Node0x429e9c0</title>
<path fill="none" stroke="black" d="M225.556,-241.313C232.244,-232.679 240.474,-222.055 247.85,-212.534"/>
<polygon fill="black" stroke="black" points="250.694,-214.578 254.051,-204.529 245.16,-210.291 250.694,-214.578"/>
</g>
</g>
</svg>
